<svg width="800" height="800" viewBox="0 0 800 800" fill="none" xmlns="http://www.w3.org/2000/svg">
<path d="M681.313 179L445.5 39C431.437 30.6875 415.687 26.5 400 26.5C384.312 26.5 368.563 30.6875 354.5 39.0625L118.625 179.062C90.5 195.75 73.125 226.625 73.125 260.063V540.063C73.125 573.5 90.4375 604.375 118.625 621.063L354.437 761.062C368.5 769.437 384.188 773.562 399.938 773.562C415.625 773.562 431.375 769.375 445.437 761.062L681.313 621.063C709.438 604.375 726.813 573.438 726.813 540.063V260C726.813 226.625 709.5 195.687 681.313 179ZM498.688 616.187L499.063 636.312C499.063 638.75 497.5 641.5 495.625 642.5L483.688 649.375C481.813 650.313 480.188 649.188 480.188 646.75L480 626.937C469.813 631.187 459.437 632.188 452.875 629.563C451.625 629.063 451.062 627.25 451.562 625.125L455.875 606.938C456.25 605.5 457 604.063 458 603.188C458.375 602.813 458.75 602.562 459.125 602.375C459.812 602 460.5 601.938 461.062 602.188C468.187 604.563 477.25 603.438 486 599.063C497.125 593.438 504.563 582.063 504.438 570.813C504.313 560.563 498.813 556.375 485.375 556.25C468.25 556.313 452.25 552.938 452 527.688C451.812 506.938 462.563 485.313 479.688 471.688L479.5 451.375C479.5 448.875 481 446.125 482.937 445.125L494.5 437.75C496.375 436.813 498 438 498 440.438L498.188 460.75C506.688 457.375 514.063 456.438 520.75 458C522.188 458.375 522.875 460.375 522.25 462.688L517.75 480.688C517.375 482.063 516.625 483.437 515.688 484.312C515.339 484.663 514.938 484.959 514.5 485.187C513.875 485.5 513.313 485.563 512.75 485.5C509.688 484.813 502.438 483.25 491 489C479 495.063 474.813 505.5 474.875 513.25C475 522.5 479.688 525.312 496.063 525.562C517.875 525.937 527.25 535.438 527.5 557.375C527.813 578.875 516.313 602.062 498.688 616.187ZM663.313 238.062L440.187 375.875C412.375 392.125 391.875 410.375 391.812 443.938V718.875C391.812 738.937 399.938 751.938 412.375 755.75C408.313 756.438 404.125 756.938 400 756.938C386.937 756.938 374.063 753.375 362.75 746.688L126.937 606.688C103.875 593 89.5625 567.438 89.5625 540V260C89.5625 232.563 103.875 207 126.937 193.313L362.812 53.3125C374.125 46.625 387 43.0625 400.063 43.0625C413.125 43.0625 426 46.625 437.313 53.3125L673.188 193.313C692.625 204.875 705.75 224.812 709.438 247.25C701.5 230.562 683.875 226.062 663.313 238.062Z" fill="#D2D2D2"/>
<path d="M619.5 567.063L560.75 602.187C559.188 603.125 558.062 604.125 558.062 606V621.375C558.062 623.25 559.312 624.062 560.875 623.125L620.5 586.875C622.062 585.938 622.312 584.25 622.312 582.375V568.813C622.312 566.938 621.063 566.188 619.5 567.063Z" fill="#4FA847"/>
</svg>
