<svg width="800" height="800" viewBox="0 0 800 800" fill="none" xmlns="http://www.w3.org/2000/svg">
<path d="M301.86 441.629C304.703 390.926 329.491 346.125 367.049 314.469C403.802 283.35 453.164 264.303 507.354 264.303C561.277 264.303 610.638 283.323 647.391 314.469C684.949 346.125 709.63 390.926 712.581 441.629C715.424 493.673 694.472 542.23 657.853 578.178C620.296 614.663 567.179 637.734 507.354 637.734C447.53 637.734 394.145 614.824 356.855 578.178C320.102 542.23 299.177 493.942 302.128 441.897L301.86 441.629Z" fill="white"/>
<path d="M414.26 435.419C415.721 409.363 428.459 386.34 447.76 370.073C466.647 354.081 492.013 344.293 519.861 344.293C547.571 344.293 572.937 354.067 591.824 370.073C611.125 386.34 623.808 409.363 625.324 435.419C626.786 462.164 616.019 487.116 597.201 505.59C577.9 524.339 550.604 536.195 519.861 536.195C489.118 536.195 461.684 524.422 442.521 505.59C423.634 487.116 412.881 462.302 414.397 435.557L414.26 435.419Z" fill="#265787"/>
<path d="M248.827 490.563C249.006 500.765 252.26 520.617 257.14 536.057C267.397 568.868 284.85 599.198 308.976 625.805C333.791 653.239 364.396 675.297 399.688 691.013C436.773 707.418 477.028 715.828 518.8 715.828C560.572 715.773 600.827 707.225 637.911 690.599C673.204 674.745 703.809 652.688 728.624 625.116C752.888 598.233 770.258 567.903 780.459 535.092C785.629 518.549 788.896 501.73 790.206 484.911C791.488 468.368 790.951 451.687 788.594 435.005C783.989 402.608 772.739 372.141 755.507 344.569C739.791 319.065 719.387 296.869 695.124 278.12L695.179 278.079L451.165 90.5878C450.945 90.4224 450.765 90.243 450.531 90.0914C434.539 77.7942 407.519 77.8356 390.01 90.1603C372.226 102.623 370.158 123.247 386.012 136.206L385.943 136.275L487.822 219.129L177.636 219.46H177.222C151.58 219.488 126.903 236.279 122.078 257.648C117.06 279.292 134.485 297.351 161.23 297.351L161.189 297.448L318.35 297.145L37.1143 512.208C36.7558 512.469 36.3698 512.745 36.0389 513.007C9.56964 533.272 1.02225 567.049 17.7034 588.279C34.6603 609.923 70.6419 610.061 97.3869 588.403L250.412 462.95C250.412 462.95 248.179 479.907 248.358 489.971L248.827 490.563ZM643.109 547.224C611.539 579.345 567.285 597.681 519.586 597.681C471.748 597.764 427.495 579.759 395.924 547.638C380.484 531.922 369.179 514 362.149 494.837C355.297 475.95 352.636 455.96 354.401 435.833C356.069 416.118 361.942 397.232 371.358 380.275C380.567 363.594 393.278 348.429 408.856 335.608C439.599 310.655 478.613 297.007 519.42 297.007C560.365 296.951 599.379 310.365 630.122 335.332C645.7 348.07 658.384 363.18 667.62 379.861C677.036 396.818 682.923 415.567 684.577 435.419C686.314 455.547 683.654 475.536 676.802 494.423C669.799 513.724 658.466 531.646 643.026 547.362L643.109 547.224Z" fill="#EA7600"/>
</svg>
