<svg width="724" height="800" viewBox="0 0 724 800" fill="none" xmlns="http://www.w3.org/2000/svg">
<g clip-path="url(#clip0_65_30)">
<path fill-rule="evenodd" clip-rule="evenodd" d="M341.098 5.45311C354.035 -1.80403 369.963 -1.80403 382.881 5.45311C446.802 41.3197 639.157 149.282 703.098 185.148C716.034 192.386 723.998 205.796 723.998 220.31C723.998 292.043 723.998 507.948 723.998 579.681C723.998 594.196 716.034 607.605 703.098 614.862C639.176 650.729 446.821 758.691 382.881 794.557C369.944 801.814 354.016 801.814 341.098 794.557C277.177 758.691 84.8221 650.729 20.8816 614.862C7.96398 607.605 0 594.215 0 579.7C0 507.967 0 292.062 0 220.329C0 205.815 7.96398 192.405 20.9007 185.148C84.8031 149.282 277.196 41.3197 341.098 5.45311Z" fill="#004482"/>
<path fill-rule="evenodd" clip-rule="evenodd" d="M5.79199 598.176C0.723998 591.395 0 584.957 0 576.291C0 504.976 0 290.31 0 218.977C0 204.539 7.94493 191.205 20.8435 184.005C84.5363 148.348 276.243 41.0149 339.936 5.33869C352.835 -1.88035 370.306 -1.72797 383.205 5.49107C446.898 41.1482 637.957 147.567 701.65 183.224C706.794 186.12 710.719 189.605 714.224 194.196L5.79199 598.176Z" fill="#659AD2"/>
<path fill-rule="evenodd" clip-rule="evenodd" d="M361.999 133.339C509.218 133.339 628.735 252.824 628.735 400.005C628.735 547.186 509.218 666.672 361.999 666.672C214.78 666.672 95.2627 547.186 95.2627 400.005C95.2627 252.824 214.78 133.339 361.999 133.339ZM361.999 266.672C435.599 266.672 495.367 326.405 495.367 400.005C495.367 473.586 435.599 533.338 361.999 533.338C288.399 533.338 228.631 473.586 228.631 400.005C228.631 326.405 288.38 266.672 361.999 266.672Z" fill="white"/>
<path fill-rule="evenodd" clip-rule="evenodd" d="M714.186 194.386C724.017 203.586 723.827 217.453 723.827 228.367C723.827 300.653 723.217 506.253 723.998 578.538C724.074 586.081 721.578 594.024 717.844 600.005L354.245 400.005L714.186 194.386Z" fill="#00599C"/>
</g>
<defs>
<clipPath id="clip0_65_30">
<rect width="724" height="800" fill="white"/>
</clipPath>
</defs>
</svg>
