<svg width="800" height="800" viewBox="0 0 800 800" fill="none" xmlns="http://www.w3.org/2000/svg">
<path d="M111.495 720.03L47.3 0H752.7L688.436 719.916L399.569 800L111.495 720.03Z" fill="#264DE4"/>
<path d="M633.419 674.075L688.338 58.8718H400V738.787L633.419 674.075Z" fill="#2965F1"/>
<path d="M194.469 325.922L202.383 414.23H400V325.922H194.469ZM186.592 235.492H400V147.183H178.564L186.592 235.492ZM400 555.269L399.613 555.372L301.263 528.816L294.977 458.384H206.327L218.7 597.042L399.594 647.261L400 647.147V555.269Z" fill="#EBEBEB"/>
<path d="M399.695 325.922V414.23H508.438L498.188 528.759L399.695 555.342V647.217L580.733 597.042L582.061 582.122L602.811 349.634L604.967 325.922L620.909 147.183H399.695V235.492H524.131L516.094 325.922H399.695Z" fill="white"/>
</svg>
