<svg width="800" height="455" viewBox="0 0 800 455" fill="none" xmlns="http://www.w3.org/2000/svg">
<g clip-path="url(#clip0_40_4)">
<path d="M462.706 143.504H534.443V216.852H570.715C587.465 216.852 604.694 213.867 620.557 208.491C628.351 205.848 637.1 202.169 644.788 197.542C634.662 184.318 629.492 167.62 627.97 151.16C625.903 128.774 630.418 99.6343 645.566 82.1128L653.107 73.389L662.093 80.6137C684.717 98.7941 703.743 124.197 707.097 153.157C734.338 145.142 766.321 147.038 790.333 160.899L800.184 166.585L794.999 176.707C774.692 216.349 732.238 228.629 690.732 226.456C628.623 381.183 493.405 454.435 329.454 454.435C244.752 454.435 167.039 422.765 122.786 347.598C120.191 342.929 117.97 338.047 115.613 333.251C100.654 300.164 95.686 263.918 99.0565 227.702L100.068 216.854H161.411V143.505H233.147V71.7534H376.62V0.00143433H462.705L462.706 143.504Z" fill="#394D54"/>
<mask id="mask0_40_4" style="mask-type:luminance" maskUnits="userSpaceOnUse" x="110" y="6" width="675" height="437">
<path d="M238.431 6.27585V150.621H169.412V222.793H111.626C111.381 224.882 111.182 226.976 110.98 229.069C107.369 268.39 114.232 304.654 130 335.661L135.294 345.172C138.467 350.873 142.169 356.227 146.078 361.45C149.983 366.667 151.367 369.555 153.824 373.022C195.513 419.889 257.661 442.448 329.412 442.448C488.309 442.448 623.162 372.039 682.843 213.87C725.186 218.216 765.803 207.356 784.314 171.213C754.828 154.194 716.931 159.649 695.098 170.625L752.941 6.27585L527.059 150.621H454.902V6.27585H238.431Z" fill="white"/>
</mask>
<g mask="url(#mask0_40_4)">
<path d="M388.577 11.957H450.75V74.1447H388.577V11.957Z" fill="#20C2EF"/>
<path d="M396.211 68.962V17.1367ZM405.535 68.962V17.1367ZM414.952 68.962V17.1367ZM424.375 68.962V17.1367ZM433.796 68.962V17.1367ZM443.118 68.962V17.1367Z" fill="black"/>
<path d="M396.211 68.962V17.1367M405.535 68.962V17.1367M414.952 68.962V17.1367M424.375 68.962V17.1367M433.796 68.962V17.1367M443.118 68.962V17.1367" stroke="#394D54" stroke-width="1.56"/>
<path d="M460.314 74.1417H522.486V11.9574H460.314V74.1417Z" fill="#00ACD3"/>
<path d="M467.948 17.1385V68.9638ZM477.271 17.1385V68.9638ZM486.689 17.1385V68.9638ZM496.111 17.1385V68.9638ZM505.532 17.1385V68.9638ZM514.854 17.1385V68.9638Z" fill="black"/>
<path d="M467.948 17.1385V68.9638M477.271 17.1385V68.9638M486.689 17.1385V68.9638M496.111 17.1385V68.9638M505.532 17.1385V68.9638M514.854 17.1385V68.9638" stroke="#394D54" stroke-width="1.56"/>
<path d="M101.631 83.7108H163.804V145.895H101.631V83.7108Z" fill="#00ACD3"/>
<path d="M101.631 155.461H163.804V217.649H101.631V155.461Z" fill="#20C2EF"/>
<path d="M109.266 140.714V88.8887ZM118.589 140.714V88.8887ZM128.006 140.714V88.8887ZM137.429 140.714V88.8887ZM146.85 140.714V88.8887ZM156.172 140.714V88.8887Z" fill="black"/>
<path d="M109.266 140.714V88.8887M118.589 140.714V88.8887M128.006 140.714V88.8887M137.429 140.714V88.8887M146.85 140.714V88.8887M156.172 140.714V88.8887" stroke="#394D54" stroke-width="1.56"/>
<path d="M109.266 212.466V160.641ZM118.589 212.466V160.641ZM128.006 212.466V160.641ZM137.429 212.466V160.641ZM146.85 212.466V160.641ZM156.172 212.466V160.641Z" fill="black"/>
<path d="M109.266 212.466V160.641M118.589 212.466V160.641M128.006 212.466V160.641M137.429 212.466V160.641M146.85 212.466V160.641M156.172 212.466V160.641" stroke="#394D54" stroke-width="1.56"/>
<path d="M173.368 217.646H235.54V155.461H173.368V217.646Z" fill="#00ACD3"/>
<path d="M173.368 145.895H235.54V83.7078H173.368V145.895Z" fill="#20C2EF"/>
<path d="M181.002 160.642V212.468ZM190.325 160.642V212.468ZM199.743 160.642V212.468ZM209.165 160.642V212.468ZM218.586 160.642V212.468ZM227.908 160.642V212.468Z" fill="black"/>
<path d="M181.002 160.642V212.468M190.325 160.642V212.468M199.743 160.642V212.468M209.165 160.642V212.468M218.586 160.642V212.468M227.908 160.642V212.468" stroke="#394D54" stroke-width="1.56"/>
<path d="M181.002 88.8904V140.716ZM190.325 88.8904V140.716ZM199.743 88.8904V140.716ZM209.165 88.8904V140.716ZM218.586 88.8904V140.716ZM227.908 88.8904V140.716Z" fill="black"/>
<path d="M181.002 88.8904V140.716M190.325 88.8904V140.716M199.743 88.8904V140.716M209.165 88.8904V140.716M218.586 88.8904V140.716M227.908 88.8904V140.716" stroke="#394D54" stroke-width="1.56"/>
<path d="M245.105 83.7107H307.277V145.895H245.105V83.7107Z" fill="#00ACD3"/>
<path d="M245.105 155.461H307.277V217.649H245.105V155.461Z" fill="#20C2EF"/>
<path d="M252.739 140.714V88.8887ZM262.062 140.714V88.8887ZM271.48 140.714V88.8887ZM280.902 140.714V88.8887ZM290.323 140.714V88.8887ZM299.645 140.714V88.8887Z" fill="black"/>
<path d="M252.739 140.714V88.8887M262.062 140.714V88.8887M271.48 140.714V88.8887M280.902 140.714V88.8887M290.323 140.714V88.8887M299.645 140.714V88.8887" stroke="#394D54" stroke-width="1.56"/>
<path d="M252.739 212.466V160.641ZM262.062 212.466V160.641ZM271.48 212.466V160.641ZM280.902 212.466V160.641ZM290.323 212.466V160.641ZM299.645 212.466V160.641Z" fill="black"/>
<path d="M252.739 212.466V160.641M262.062 212.466V160.641M271.48 212.466V160.641M280.902 212.466V160.641M290.323 212.466V160.641M299.645 212.466V160.641" stroke="#394D54" stroke-width="1.56"/>
<path d="M316.841 217.645H379.014V155.461H316.841V217.645Z" fill="#00ACD3"/>
<path d="M316.841 145.895H379.014V83.7078H316.841V145.895Z" fill="#20C2EF"/>
<path d="M324.475 160.642V212.468ZM333.799 160.642V212.468ZM343.216 160.642V212.468ZM352.639 160.642V212.468ZM362.06 160.642V212.468ZM371.381 160.642V212.468Z" fill="black"/>
<path d="M324.475 160.642V212.468M333.799 160.642V212.468M343.216 160.642V212.468M352.639 160.642V212.468M362.06 160.642V212.468M371.381 160.642V212.468" stroke="#394D54" stroke-width="1.56"/>
<path d="M324.475 88.8904V140.716ZM333.799 88.8904V140.716ZM343.216 88.8904V140.716ZM352.639 88.8904V140.716ZM362.06 88.8904V140.716ZM371.381 88.8904V140.716Z" fill="black"/>
<path d="M324.475 88.8904V140.716M333.799 88.8904V140.716M343.216 88.8904V140.716M352.639 88.8904V140.716M362.06 88.8904V140.716M371.381 88.8904V140.716" stroke="#394D54" stroke-width="1.56"/>
<path d="M388.577 83.7107H450.75V145.895H388.577V83.7107Z" fill="#00ACD3"/>
<path d="M388.577 155.461H450.75V217.649H388.577V155.461Z" fill="#20C2EF"/>
<path d="M396.211 140.714V88.8887ZM405.535 140.714V88.8887ZM414.952 140.714V88.8887ZM424.375 140.714V88.8887ZM433.796 140.714V88.8887ZM443.118 140.714V88.8887Z" fill="black"/>
<path d="M396.211 140.714V88.8887M405.535 140.714V88.8887M414.952 140.714V88.8887M424.375 140.714V88.8887M433.796 140.714V88.8887M443.118 140.714V88.8887" stroke="#394D54" stroke-width="1.56"/>
<path d="M396.211 212.466V160.641ZM405.535 212.466V160.641ZM414.952 212.466V160.641ZM424.375 212.466V160.641ZM433.796 212.466V160.641ZM443.118 212.466V160.641Z" fill="black"/>
<path d="M396.211 212.466V160.641M405.535 212.466V160.641M414.952 212.466V160.641M424.375 212.466V160.641M433.796 212.466V160.641M443.118 212.466V160.641" stroke="#394D54" stroke-width="1.56"/>
<path d="M460.314 217.645H522.486V155.461H460.314V217.645Z" fill="#00ACD3"/>
<path d="M460.314 145.895H522.486V83.7078H460.314V145.895Z" fill="#20C2EF"/>
<path d="M467.948 160.642V212.468ZM477.271 160.642V212.468ZM486.689 160.642V212.468ZM496.111 160.642V212.468ZM505.532 160.642V212.468ZM514.854 160.642V212.468Z" fill="black"/>
<path d="M467.948 160.642V212.468M477.271 160.642V212.468M486.689 160.642V212.468M496.111 160.642V212.468M505.532 160.642V212.468M514.854 160.642V212.468" stroke="#394D54" stroke-width="1.56"/>
<path d="M467.948 88.8904V140.716ZM477.271 88.8904V140.716ZM486.689 88.8904V140.716ZM496.111 88.8904V140.716ZM505.532 88.8904V140.716ZM514.854 88.8904V140.716Z" fill="black"/>
<path d="M467.948 88.8904V140.716M477.271 88.8904V140.716M486.689 88.8904V140.716M496.111 88.8904V140.716M505.532 88.8904V140.716M514.854 88.8904V140.716" stroke="#394D54" stroke-width="1.56"/>
</g>
<mask id="mask1_40_4" style="mask-type:luminance" maskUnits="userSpaceOnUse" x="110" y="6" width="675" height="437">
<path d="M238.431 6.27585V150.621H169.412V222.793H111.626C111.381 224.882 111.182 226.976 110.98 229.069C107.369 268.39 114.232 304.654 130 335.661L135.294 345.172C138.467 350.873 142.169 356.227 146.078 361.45C149.983 366.667 151.367 369.555 153.824 373.022C195.513 419.889 257.661 442.448 329.412 442.448C488.309 442.448 623.162 372.039 682.843 213.87C725.186 218.216 765.803 207.356 784.314 171.213C754.828 154.194 716.931 159.649 695.098 170.625L752.941 6.27585L527.059 150.621H454.902V6.27585H238.431Z" fill="white"/>
</mask>
<g mask="url(#mask1_40_4)">
<path d="M695.122 170.64C699.932 133.25 671.957 103.881 654.607 89.9371C634.614 113.057 631.508 173.649 662.874 199.16C645.369 214.712 608.482 228.809 570.714 228.809H106.666C102.994 268.243 106.666 458.138 106.666 458.138H787.451L784.356 171.256C754.87 154.237 716.954 159.664 695.122 170.64Z" fill="#17B5EB"/>
</g>
<mask id="mask2_40_4" style="mask-type:luminance" maskUnits="userSpaceOnUse" x="110" y="6" width="675" height="437">
<path d="M238.431 6.27585V150.621H169.412V222.793H111.626C111.381 224.882 111.182 226.976 110.98 229.069C107.369 268.39 114.232 304.654 130 335.661L135.294 345.172C138.467 350.873 142.169 356.227 146.078 361.45C149.983 366.667 151.367 369.555 153.824 373.022C195.513 419.889 257.661 442.448 329.412 442.448C488.309 442.448 623.162 372.039 682.843 213.87C725.186 218.216 765.803 207.356 784.314 171.213C754.828 154.194 716.931 159.649 695.098 170.625L752.941 6.27585L527.059 150.621H454.902V6.27585H238.431Z" fill="white"/>
</mask>
<g mask="url(#mask2_40_4)">
<path d="M106.667 279.276V458.138H787.451V279.276" fill="black" fill-opacity="0.17"/>
</g>
<mask id="mask3_40_4" style="mask-type:luminance" maskUnits="userSpaceOnUse" x="110" y="6" width="675" height="437">
<path d="M238.431 6.27585V150.621H169.412V222.793H111.626C111.381 224.882 111.182 226.976 110.98 229.069C107.369 268.39 114.232 304.654 130 335.661L135.294 345.172C138.467 350.873 142.169 356.227 146.078 361.45C149.983 366.667 151.367 369.555 153.824 373.022C195.513 419.889 257.661 442.448 329.412 442.448C488.309 442.448 623.162 372.039 682.843 213.87C725.186 218.216 765.803 207.356 784.314 171.213C754.828 154.194 716.931 159.649 695.098 170.625L752.941 6.27585L527.059 150.621H454.902V6.27585H238.431Z" fill="white"/>
</mask>
<g mask="url(#mask3_40_4)">
<path d="M348.98 442.103C306.503 421.941 283.187 394.535 270.214 364.614L141.177 370.276L207.059 458.138L348.98 442.103Z" fill="#D4EDF1"/>
</g>
<mask id="mask4_40_4" style="mask-type:luminance" maskUnits="userSpaceOnUse" x="110" y="6" width="675" height="437">
<path d="M238.431 6.27585V150.621H169.412V222.793H111.626C111.381 224.882 111.182 226.976 110.98 229.069C107.369 268.39 114.232 304.654 130 335.661L135.294 345.172C138.467 350.873 142.169 356.227 146.078 361.45C149.983 366.667 151.367 369.555 153.824 373.022C195.513 419.889 257.661 442.448 329.412 442.448C488.309 442.448 623.162 372.039 682.843 213.87C725.186 218.216 765.803 207.356 784.314 171.213C754.828 154.194 716.931 159.649 695.098 170.625L752.941 6.27585L527.059 150.621H454.902V6.27585H238.431Z" fill="white"/>
</mask>
<g mask="url(#mask4_40_4)">
<path d="M698.039 169.252V169.35C632.592 253.726 538.72 327.435 437.941 366.157C348.044 400.699 269.664 400.864 215.588 373.12C209.765 369.83 204.057 366.18 198.333 362.725C158.689 335.011 136.359 289.168 138.235 228.775H106.667V458.138H787.451V156.897H709.02L698.039 169.252Z" fill="black" fill-opacity="0.085"/>
</g>
<path d="M143.137 367.236C187.577 369.669 235.004 370.105 276.372 357.136" stroke="#394D54" stroke-width="3.4" stroke-linecap="round"/>
<path d="M320.534 335.631C320.534 345.104 312.856 352.784 303.384 352.784C293.911 352.784 286.231 345.104 286.231 335.631C286.231 326.157 293.911 318.474 303.384 318.474C312.856 318.474 320.534 326.157 320.534 335.631Z" fill="#D4EDF1"/>
<path d="M307.832 324.173C306.335 325.038 305.322 326.66 305.322 328.515C305.322 331.285 307.566 333.527 310.335 333.527C312.232 333.527 313.881 332.473 314.733 330.917C315.334 332.367 315.668 333.96 315.668 335.631C315.668 342.415 310.169 347.916 303.384 347.916C296.601 347.916 291.099 342.415 291.099 335.631C291.099 328.843 296.601 323.341 303.384 323.341C304.954 323.341 306.451 323.637 307.832 324.173Z" fill="#394D54"/>
<path d="M0 282.923H797.89C780.517 278.515 742.922 272.561 749.122 249.787C717.533 286.35 641.349 275.438 622.122 257.409C600.711 288.469 476.069 276.663 467.375 252.466C440.534 283.974 357.361 283.974 330.518 252.466C321.821 276.663 197.18 288.469 175.768 257.409C156.541 275.438 80.3641 286.35 48.7713 249.787C54.9712 272.561 17.3767 278.515 0 282.923Z" fill="#394D54"/>
</g>
<defs>
<clipPath id="clip0_40_4">
<rect width="800" height="455" fill="white"/>
</clipPath>
</defs>
</svg>
