<svg width="800" height="800" viewBox="0 0 800 800" fill="none" xmlns="http://www.w3.org/2000/svg">
<g clip-path="url(#clip0_44_324)">
<path d="M784.421 364.751L435.333 15.7059C415.248 -4.39791 382.644 -4.39791 362.533 15.7059L290.049 88.1972L381.993 180.141C403.368 172.924 427.867 177.763 444.898 194.796C462.016 211.936 466.82 236.645 459.423 258.091L548.04 346.709C569.479 339.321 594.216 344.094 611.335 361.243C635.269 385.17 635.269 423.942 611.335 447.875C587.397 471.816 548.626 471.816 524.675 447.875C506.679 429.865 502.228 403.422 511.343 381.249L428.697 298.603L428.69 516.084C434.525 518.973 440.032 522.828 444.894 527.669C468.821 551.594 468.821 590.358 444.894 614.322C420.96 638.246 382.171 638.246 358.263 614.322C334.332 590.36 334.332 551.596 358.263 527.669C364.177 521.766 371.02 517.298 378.321 514.302V294.801C371.016 291.818 364.181 287.383 358.258 281.432C340.132 263.32 335.766 236.716 345.063 214.458L254.424 123.805L15.0836 363.138C-5.02657 383.258 -5.02657 415.861 15.0836 435.966L364.15 785.012C384.247 805.116 416.839 805.116 436.964 785.012L784.417 437.615C804.521 417.502 804.521 384.888 784.417 364.78" fill="#F05133"/>
</g>
<defs>
<clipPath id="clip0_44_324">
<rect width="800" height="800" fill="white"/>
</clipPath>
</defs>
</svg>
