<svg width="800" height="800" viewBox="0 0 800 800" fill="none" xmlns="http://www.w3.org/2000/svg">
<path fill-rule="evenodd" clip-rule="evenodd" d="M400 31.8936C191.581 31.8936 22.5752 200.862 22.5752 409.319C22.5752 576.081 130.719 717.55 280.681 767.462C299.538 770.962 306.463 759.275 306.463 749.306C306.463 740.306 306.113 710.575 305.95 679.037C200.95 701.869 178.794 634.506 178.794 634.506C161.625 590.881 136.888 579.281 136.888 579.281C102.638 555.856 139.469 556.344 139.469 556.344C177.363 559 197.325 595.237 197.325 595.237C230.988 652.925 285.619 636.25 307.156 626.612C310.544 602.219 320.325 585.562 331.119 576.137C247.288 566.606 159.156 534.237 159.156 389.619C159.156 348.412 173.906 314.744 198.05 288.306C194.125 278.806 181.206 240.419 201.7 188.431C201.7 188.431 233.388 178.287 305.513 227.119C335.625 218.75 367.919 214.544 400 214.4C432.063 214.544 464.375 218.737 494.544 227.106C566.581 178.275 598.231 188.419 598.231 188.419C618.775 240.4 605.856 278.794 601.938 288.294C626.138 314.731 640.781 348.4 640.781 389.606C640.781 534.569 552.488 566.481 468.444 575.831C481.988 587.544 494.05 610.519 494.05 645.725C494.05 696.225 493.613 736.869 493.613 749.3C493.613 759.344 500.413 771.112 519.538 767.406C669.413 717.444 777.431 576.019 777.431 409.319C777.425 200.875 608.438 31.8936 400 31.8936Z" fill="#D2D2D2"/>
</svg>
