<svg width="1000" height="800" viewBox="0 0 1000 800" fill="none" xmlns="http://www.w3.org/2000/svg">
<g clip-path="url(#clip0_40_242)">
<path d="M75.4671 325.688C73.5195 325.688 73.0326 324.714 74.0064 323.252L84.231 310.094C85.2047 308.632 87.6392 307.657 89.5867 307.657H263.404C265.352 307.657 265.839 309.119 264.865 310.581L256.588 323.252C255.614 324.714 253.18 326.176 251.719 326.176L75.4671 325.688Z" fill="#00ACD7"/>
<path d="M1.94754 370.521C0 370.521 -0.486884 369.547 0.486884 368.085L10.7114 354.927C11.6852 353.465 14.1196 352.491 16.0672 352.491H238.086C240.034 352.491 241.008 353.953 240.521 355.415L236.626 367.11C236.139 369.06 234.191 370.034 232.244 370.034L1.94754 370.521Z" fill="#00ACD7"/>
<path d="M119.773 415.355C117.826 415.355 117.339 413.893 118.313 412.431L125.129 400.248C126.103 398.786 128.05 397.324 129.998 397.324H227.375C229.322 397.324 230.296 398.786 230.296 400.735L229.322 412.431C229.322 414.38 227.375 415.842 225.914 415.842L119.773 415.355Z" fill="#00ACD7"/>
<path d="M625.159 316.917C594.485 324.714 573.549 330.561 543.362 338.358C536.059 340.308 535.572 340.795 529.243 333.485C521.94 325.201 516.584 319.84 506.359 314.967C475.686 299.86 445.986 304.246 418.233 322.277C385.125 343.719 368.084 375.395 368.571 414.867C369.058 453.853 395.837 486.016 434.3 491.376C467.409 495.762 495.161 484.066 517.071 459.213C521.453 453.853 525.348 448.005 530.217 441.182C512.689 441.182 490.779 441.182 436.248 441.182C426.023 441.182 423.589 434.847 426.997 426.563C433.327 411.456 445.012 386.116 451.828 373.445C453.289 370.521 456.697 365.648 464 365.648C488.831 365.648 580.366 365.648 641.226 365.648C640.252 378.806 640.252 391.963 638.305 405.121C632.949 440.208 619.803 472.371 598.38 500.635C563.325 546.93 517.558 575.682 459.618 583.479C411.904 589.814 367.597 580.555 328.647 551.316C292.617 524.026 272.168 487.965 266.812 443.132C260.483 390.014 276.063 342.257 308.198 300.348C342.766 255.027 388.533 226.276 444.525 216.042C490.292 207.757 534.112 213.118 573.549 239.92C599.354 256.977 617.856 280.368 630.028 308.632C632.949 313.018 631.002 315.455 625.159 316.917Z" fill="#00ACD7"/>
<path d="M786.318 586.403C742.011 585.428 701.6 572.758 667.518 543.519C638.792 518.666 620.777 486.99 614.934 449.467C606.171 394.4 621.264 345.668 654.372 302.297C689.915 255.514 732.76 231.149 790.7 220.915C840.362 212.143 887.103 217.016 929.461 245.768C967.925 272.083 991.783 307.657 998.112 354.44C1006.39 420.228 987.401 473.833 942.12 519.64C909.986 552.291 870.548 572.758 825.268 582.017C812.122 584.454 798.977 584.941 786.318 586.403ZM902.196 389.527C901.709 383.192 901.709 378.318 900.735 373.445C891.971 325.201 847.665 297.911 801.411 308.632C756.131 318.866 726.918 347.617 716.206 393.425C707.442 431.436 725.944 469.934 761 485.528C787.778 497.224 814.557 495.762 840.362 482.604C878.826 462.624 899.762 431.436 902.196 389.527Z" fill="#00ACD7"/>
</g>
<defs>
<clipPath id="clip0_40_242">
<rect width="1000" height="800" fill="white"/>
</clipPath>
</defs>
</svg>
