<svg width="800" height="800" viewBox="0 0 800 800" fill="none" xmlns="http://www.w3.org/2000/svg">
<path d="M751.069 536.338C751.069 536.338 749.903 529.183 749.221 529.247L619.384 541.775C609.053 542.772 601.029 551.011 600.304 561.364L596.737 612.489L496.289 619.655L489.456 573.321C487.935 563.015 478.935 555.246 468.518 555.246H331.482C321.068 555.246 312.068 563.015 310.547 573.321L303.711 619.655L203.263 612.489L199.696 561.364C198.971 551.008 190.947 542.769 180.616 541.771L50.7136 529.247C50.0426 529.183 49.551 536.345 48.88 536.345L48.7041 564.443L158.719 582.184L162.322 633.765C163.05 644.207 171.476 652.651 181.926 653.401L320.264 663.269C320.788 663.305 321.305 663.326 321.822 663.326C332.217 663.326 341.203 655.554 342.724 645.248L349.754 597.572H450.249L457.279 645.248C458.797 655.55 467.793 663.323 478.203 663.323C478.713 663.323 479.222 663.305 479.721 663.269L618.077 653.401C628.523 652.651 636.953 644.207 637.681 633.765L641.28 582.184L751.249 564.364L751.069 536.338Z" fill="white"/>
<path d="M48.8784 324.472V494.974V516.63V536.338C49.2659 536.341 49.6535 536.356 50.0375 536.392L179.925 548.915C186.729 549.572 192.061 555.048 192.535 561.866L196.54 619.203L309.842 627.287L317.647 574.368C318.659 567.507 324.544 562.422 331.484 562.422H468.52C475.456 562.422 481.341 567.507 482.353 574.368L490.158 627.287L603.464 619.203L607.465 561.866C607.942 555.048 613.271 549.576 620.075 548.915L749.912 536.392C750.296 536.356 750.68 536.341 751.068 536.338V519.433L751.122 519.415V324.472C769.412 301.447 786.731 276.048 800 254.68C779.722 220.159 754.875 189.309 728.317 160.727C703.686 173.125 679.762 187.17 657.165 202.116C645.858 190.877 633.122 181.683 620.613 172.074C608.323 162.202 594.471 154.964 581.334 146.531C585.245 117.403 587.179 88.728 587.958 58.8003C554.061 41.7407 517.915 30.4299 481.352 22.3056C466.754 46.8399 453.405 73.4089 441.779 99.3821C427.992 97.0784 414.14 96.2243 400.271 96.0593V96.0377C400.174 96.0377 400.084 96.0593 400.002 96.0593C399.916 96.0593 399.826 96.0377 399.74 96.0377V96.0593C385.845 96.2243 372.005 97.0784 358.214 99.3821C346.595 73.4089 333.253 46.8399 318.634 22.3056C282.089 30.4299 245.939 41.7407 212.046 58.8003C212.821 88.728 214.755 117.403 218.677 146.531C205.515 154.964 191.681 162.202 179.387 172.074C166.896 181.683 154.139 190.877 142.828 202.116C120.231 187.17 96.3142 173.125 71.6759 160.727C45.1177 189.309 20.2856 220.159 0 254.68C15.9423 279.705 33.0424 304.857 48.8784 324.472Z" fill="#478CBF"/>
<path d="M634.544 575.623L630.522 633.265C630.037 640.212 624.511 645.742 617.564 646.241L479.211 656.112C478.873 656.138 478.536 656.148 478.202 656.148C471.327 656.148 465.395 651.103 464.38 644.199L456.446 590.393H343.556L335.622 644.199C334.556 651.44 328.083 656.647 320.791 656.112L182.438 646.241C175.491 645.742 169.965 640.212 169.48 633.265L165.458 575.623L48.6641 564.363C48.7179 576.915 48.8794 590.666 48.8794 593.404C48.8794 716.754 205.354 776.042 399.762 776.724H399.999H400.24C594.648 776.042 751.069 716.754 751.069 593.404C751.069 590.616 751.237 576.922 751.295 564.363L634.544 575.623Z" fill="#478CBF"/>
<path d="M294.151 410.475C294.151 453.723 259.109 488.758 215.876 488.758C172.663 488.758 137.611 453.723 137.611 410.475C137.611 367.256 172.663 332.24 215.876 332.24C259.109 332.24 294.151 367.256 294.151 410.475Z" fill="white"/>
<path d="M275.316 415.118C275.316 443.804 252.067 467.054 223.359 467.054C194.666 467.054 171.402 443.804 171.402 415.118C171.402 386.432 194.666 363.161 223.359 363.161C252.067 363.161 275.316 386.432 275.316 415.118Z" fill="#414042"/>
<path d="M399.994 495.879C386.078 495.879 374.8 485.623 374.8 472.981V400.921C374.8 388.29 386.078 378.023 399.994 378.023C413.91 378.023 425.214 388.29 425.214 400.921V472.981C425.214 485.623 413.91 495.879 399.994 495.879Z" fill="white"/>
<path d="M505.851 410.475C505.851 453.723 540.892 488.758 584.133 488.758C627.342 488.758 662.39 453.723 662.39 410.475C662.39 367.256 627.342 332.24 584.133 332.24C540.892 332.24 505.851 367.256 505.851 410.475Z" fill="white"/>
<path d="M524.69 415.118C524.69 443.804 547.933 467.054 576.619 467.054C605.334 467.054 628.576 443.804 628.576 415.118C628.576 386.432 605.334 363.161 576.619 363.161C547.933 363.161 524.69 386.432 524.69 415.118Z" fill="#414042"/>
</svg>
