<svg width="959" height="800" viewBox="0 0 959 800" fill="none" xmlns="http://www.w3.org/2000/svg">
<path fill-rule="evenodd" clip-rule="evenodd" d="M357.496 378.106H384.584C392.981 378.106 399.699 376.981 404.666 374.756C409.632 372.53 413.459 369.312 416.11 365.137C418.762 360.962 420.549 355.805 421.485 349.704C422.421 343.602 422.889 336.496 422.889 328.444C422.889 320.393 422.409 313.298 421.485 307.185C420.561 301.071 418.606 295.843 415.643 291.512C412.679 287.181 408.445 283.975 403.262 281.894C398.08 279.812 390.966 278.759 382.244 278.759H357.496V378.106ZM309.87 233.943H386.467C442.515 233.943 470.539 266.448 470.539 331.471C470.539 350.757 467.503 367.326 461.421 381.168C455.339 395.01 444.686 406.136 429.427 414.547L480.796 566.199H430.35L385.244 421.881H357.496V566.199H309.87V233.943ZM508.819 233.943H580.271C593.467 233.943 604.863 235.654 614.82 239.087C624.778 242.521 633.811 248.575 641.909 257.272C649.969 265.913 655.749 276.417 658.728 287.839C661.847 299.504 663.406 315.296 663.406 335.216C663.406 349.835 662.231 360.304 660.527 370.724C658.824 381.144 653.293 399.281 631.568 411.58C617.988 419.273 598.493 422.036 580.75 422.036H556.47V566.199H508.843L508.819 233.943ZM556.446 378.106H579.335C588.992 378.106 596.454 376.873 601.768 374.397C607.083 371.92 610.958 368.582 613.441 364.347C615.924 360.112 617.4 354.968 617.88 348.95C618.36 342.932 618.575 336.221 618.575 328.827C618.575 321.984 618.336 315.488 617.88 309.326C617.424 303.165 616.008 297.841 613.681 293.295C611.353 288.749 607.683 285.219 602.704 282.623C597.725 280.027 590.564 278.723 581.23 278.723H556.482L556.446 378.106ZM850.204 492C850.204 502.265 848.26 512.063 844.361 521.395C840.463 530.726 835.1 538.897 828.25 545.896C821.346 552.933 813.189 558.629 804.197 562.693C794.89 566.921 784.769 569.073 774.542 568.998C765.509 568.998 756.331 567.754 746.986 565.265C737.757 562.832 729.159 558.455 721.769 552.428C714.295 546.363 708.153 538.347 703.319 528.381C698.484 518.416 696.085 505.83 696.085 490.576V307.532C696.085 296.764 697.956 286.535 701.687 277.204C705.418 267.872 710.721 259.785 717.571 252.941C724.421 246.098 732.59 240.738 742.091 236.838C751.593 232.938 762.101 231 773.618 231C784.511 231 794.636 232.95 803.969 236.838C813.303 240.726 821.4 246.17 828.25 253.169C835.1 260.167 840.487 268.566 844.361 278.364C848.236 288.163 850.204 298.703 850.204 310.331V328.995H802.578V313.131C802.578 303.799 799.938 295.712 794.636 288.868C792.153 285.553 788.901 282.888 785.159 281.1C781.417 279.312 777.297 278.456 773.15 278.604C761.322 278.604 753.452 282.264 749.565 289.574C745.678 296.884 743.723 306.144 743.723 317.33V487.19C743.723 496.833 745.822 504.921 750.033 511.453C754.244 517.985 761.79 521.263 772.682 521.263C775.802 521.263 779.161 520.713 782.723 519.624C786.286 518.535 789.561 516.753 792.537 514.24C795.512 511.728 797.911 508.33 799.77 503.976C801.63 499.621 802.578 494.165 802.578 487.645V471.315H850.204V492ZM943.537 399.64C943.537 387.509 933.699 377.675 921.583 377.675H802.614V421.582H899.617V470.573H884.67L921.835 522.938L959 470.573H943.548L943.537 399.64ZM108.1 422.012V487.777C108.1 501.463 110.44 513.379 115.106 523.476C119.773 533.574 125.927 541.984 133.557 548.672C141.187 555.36 149.752 560.42 159.23 563.842C168.429 567.211 178.149 568.948 187.949 568.974C197.749 568.948 207.469 567.211 216.669 563.842C226.17 560.42 234.723 555.348 242.341 548.672C249.959 541.996 256.113 533.598 260.792 523.476C265.47 513.355 267.798 501.463 267.798 487.777V378.189L182.443 378.07L182.323 422.012H220.148V487.789C220.148 499.298 216.957 507.768 210.575 513.223C204.291 518.636 196.226 521.545 187.925 521.395C179.624 521.545 171.559 518.636 165.276 513.223C158.894 507.78 155.703 499.298 155.703 487.789V312.341C155.703 300.832 158.894 292.362 165.276 286.906C171.559 281.494 179.624 278.584 187.925 278.735C196.226 278.584 204.291 281.494 210.575 286.906C216.957 292.35 220.148 300.832 220.148 312.341V329.138H267.774V312.341C267.774 298.966 265.434 287.146 260.768 276.881C256.101 266.616 249.947 258.134 242.317 251.446C234.687 244.758 226.122 239.698 216.645 236.276C207.445 232.907 197.725 231.17 187.925 231.144C178.125 231.17 168.405 232.907 159.205 236.276C149.704 239.698 141.151 244.77 133.533 251.446C125.915 258.122 119.761 266.616 115.082 276.881C110.404 287.146 108.076 298.966 108.076 312.341V378.106H59.3826V329.126H74.3303L37.1651 276.761L0 329.126H15.4515V400.071C15.4515 412.202 25.2886 422.036 37.4051 422.036H108.1V422.012Z" fill="#2DA6B0"/>
</svg>
