<svg width="800" height="800" viewBox="0 0 800 800" fill="none" xmlns="http://www.w3.org/2000/svg">
<path fill-rule="evenodd" clip-rule="evenodd" d="M298.3 381.642H320.88C327.88 381.642 333.48 380.702 337.62 378.842C341.76 376.982 344.95 374.292 347.16 370.802C349.37 367.312 350.86 363.002 351.64 357.902C352.42 352.802 352.81 346.862 352.81 340.132C352.81 333.402 352.41 327.472 351.64 322.362C350.87 317.252 349.24 312.882 346.77 309.262C344.3 305.642 340.77 302.962 336.45 301.222C332.13 299.482 326.2 298.602 318.93 298.602H298.3V381.642ZM258.6 261.142H322.45C369.17 261.142 392.53 288.312 392.53 342.662C392.53 358.782 390 372.632 384.93 384.202C379.86 395.772 370.98 405.072 358.26 412.102L401.08 538.862H359.03L321.43 418.232H298.3V538.862H258.6V261.142ZM424.44 261.142H484C495 261.142 504.5 262.572 512.8 265.442C521.1 268.312 528.63 273.372 535.38 280.642C542.099 287.864 546.917 296.644 549.4 306.192C552 315.942 553.3 329.142 553.3 345.792C553.3 358.012 552.32 366.762 550.9 375.472C549.48 384.182 544.87 399.342 526.76 409.622C515.44 416.052 499.19 418.362 484.4 418.362H464.16V538.862H424.46L424.44 261.142ZM464.14 381.642H483.22C491.27 381.642 497.49 380.612 501.92 378.542C506.35 376.472 509.58 373.682 511.65 370.142C513.72 366.602 514.95 362.302 515.35 357.272C515.75 352.242 515.93 346.632 515.93 340.452C515.93 334.732 515.73 329.302 515.35 324.152C514.97 319.002 513.79 314.552 511.85 310.752C509.91 306.952 506.85 304.002 502.7 301.832C498.55 299.662 492.58 298.572 484.8 298.572H464.17L464.14 381.642ZM709.01 476.842C709.01 485.422 707.39 493.612 704.14 501.412C700.89 509.212 696.42 516.042 690.71 521.892C684.955 527.774 678.156 532.535 670.66 535.932C662.902 539.466 654.466 541.264 645.94 541.202C638.41 541.202 630.76 540.162 622.97 538.082C615.278 536.047 608.11 532.389 601.95 527.352C595.72 522.282 590.6 515.582 586.57 507.252C582.54 498.922 580.54 488.402 580.54 475.652V322.652C580.54 313.652 582.1 305.102 585.21 297.302C588.32 289.502 592.74 282.742 598.45 277.022C604.16 271.302 610.97 266.822 618.89 263.562C626.81 260.302 635.57 258.682 645.17 258.682C654.25 258.682 662.69 260.312 670.47 263.562C678.25 266.812 685 271.362 690.71 277.212C696.42 283.062 700.91 290.082 704.14 298.272C707.37 306.462 709.01 315.272 709.01 324.992V340.592H669.31V327.332C669.31 319.532 667.11 312.772 662.69 307.052C660.621 304.281 657.91 302.053 654.791 300.558C651.672 299.064 648.237 298.348 644.78 298.472C634.92 298.472 628.36 301.532 625.12 307.642C621.88 313.752 620.25 321.492 620.25 330.842V472.822C620.25 480.882 622 487.642 625.51 493.102C629.02 498.562 635.31 501.302 644.39 501.302C646.99 501.302 649.79 500.842 652.76 499.932C655.73 499.022 658.46 497.532 660.94 495.432C663.42 493.332 665.42 490.492 666.97 486.852C668.52 483.212 669.31 478.652 669.31 473.202V459.552H709.01V476.842ZM786.81 399.642C786.81 389.502 778.61 381.282 768.51 381.282H669.34V417.982H750.2V458.932H737.74L768.72 502.702L799.7 458.932H786.82L786.81 399.642ZM90.4103 418.342V473.312C90.4103 484.752 92.3603 494.712 96.2503 503.152C100.14 511.592 105.27 518.622 111.63 524.212C117.99 529.802 125.13 534.032 133.03 536.892C140.699 539.708 148.801 541.16 156.97 541.182C165.139 541.16 173.242 539.708 180.91 536.892C188.83 534.032 195.96 529.792 202.31 524.212C208.66 518.632 213.79 511.612 217.69 503.152C221.59 494.692 223.53 484.752 223.53 473.312V381.712L152.38 381.612L152.28 418.342H183.81V473.322C183.81 482.942 181.15 490.022 175.83 494.582C170.593 499.106 163.87 501.538 156.95 501.412C150.031 501.538 143.308 499.106 138.07 494.582C132.75 490.032 130.09 482.942 130.09 473.322V326.672C130.09 317.052 132.75 309.972 138.07 305.412C143.308 300.888 150.031 298.456 156.95 298.582C163.87 298.456 170.593 300.888 175.83 305.412C181.15 309.962 183.81 317.052 183.81 326.672V340.712H223.51V326.672C223.51 315.492 221.56 305.612 217.67 297.032C213.78 288.452 208.65 281.362 202.29 275.772C195.93 270.182 188.79 265.952 180.89 263.092C173.222 260.276 165.119 258.824 156.95 258.802C148.781 258.824 140.679 260.276 133.01 263.092C125.09 265.952 117.96 270.192 111.61 275.772C105.26 281.352 100.13 288.452 96.2303 297.032C92.3303 305.612 90.3903 315.492 90.3903 326.672V381.642H49.8003V340.702H62.2603L31.2803 296.932L0.300293 340.702H13.1803V400.002C13.1803 410.142 21.3803 418.362 31.4803 418.362H90.4103V418.342Z" fill="#2DA6B0"/>
</svg>
