<svg width="800" height="800" viewBox="0 0 800 800" fill="none" xmlns="http://www.w3.org/2000/svg">
<g clip-path="url(#clip0_40_239)">
<path d="M800 0H0V800H800V0Z" fill="#F7DF1E"/>
<path d="M537.397 625.003C553.511 651.314 574.476 670.654 611.556 670.654C642.705 670.654 662.603 655.086 662.603 633.575C662.603 607.797 642.159 598.667 607.873 583.67L589.079 575.606C534.832 552.495 498.794 523.543 498.794 462.336C498.794 405.956 541.752 363.035 608.889 363.035C656.686 363.035 691.048 379.67 715.81 423.225L657.27 460.813C644.381 437.702 630.476 428.597 608.889 428.597C586.87 428.597 572.914 442.565 572.914 460.813C572.914 483.365 586.883 492.495 619.137 506.463L637.93 514.514C701.803 541.905 737.867 569.829 737.867 632.609C737.867 700.292 684.698 737.371 613.295 737.371C543.479 737.371 498.375 704.102 476.305 660.495L537.397 625.003ZM271.835 631.517C283.644 652.47 294.387 670.184 320.216 670.184C344.914 670.184 360.495 660.521 360.495 622.946V367.327H435.67V623.962C435.67 701.803 390.032 737.232 323.416 737.232C263.225 737.232 228.368 706.083 210.641 668.565L271.835 631.517Z" fill="black"/>
</g>
<defs>
<clipPath id="clip0_40_239">
<rect width="800" height="800" fill="white"/>
</clipPath>
</defs>
</svg>
