<svg width="800" height="800" viewBox="0 0 800 800" fill="none" xmlns="http://www.w3.org/2000/svg">
<g clip-path="url(#clip0_49_26)">
<path d="M730.23 185.76C725.665 171.152 714.709 159.282 701.014 151.978L422.545 18.6783C415.24 15.0263 407.023 14.1133 399.719 14.1133C392.415 14.1133 384.198 14.1133 376.894 15.9393L98.4249 150.152C84.7297 156.543 74.6866 168.412 71.0345 183.934L2.55855 484.315C-0.180492 499.836 3.47156 515.357 12.6017 528.14L205.247 766.436C216.204 777.392 231.725 784.696 247.246 785.609H554.019C570.453 787.435 585.974 780.131 596.017 766.436L788.663 528.14C797.793 515.357 801.445 499.836 799.619 484.315L730.23 185.76Z" fill="#326DE6"/>
<path d="M687.318 472.446C686.405 472.446 685.492 472.445 685.492 471.532C685.492 470.619 683.666 470.619 681.84 470.619C678.188 469.706 674.536 469.706 670.884 469.706C669.058 469.706 667.232 469.706 665.406 468.793H664.493C654.45 467.88 643.494 466.054 633.451 463.315C630.712 462.402 627.973 459.663 627.06 456.924L619.755 455.098C623.407 428.621 621.581 401.23 616.103 374.753C609.712 348.276 598.756 322.711 584.148 299.886L589.626 294.408V293.495C589.626 290.756 590.539 287.104 592.365 285.278C600.582 277.974 608.799 272.496 617.929 267.018C619.755 266.105 621.581 265.192 623.407 264.279C627.06 262.452 629.799 260.626 633.451 258.8C634.364 257.887 635.277 257.887 636.19 256.974C637.103 256.061 636.19 256.061 636.19 255.148C644.407 248.757 646.233 237.801 639.842 229.584C637.103 225.932 631.625 223.193 627.06 223.193C622.494 223.193 617.929 225.019 614.277 227.758L613.364 228.671C612.451 229.584 611.538 230.497 610.625 230.497C607.886 233.236 605.147 235.975 603.321 238.714C602.408 240.54 600.582 241.453 599.669 242.366C593.278 249.67 585.061 256.974 576.844 262.452C575.018 263.366 573.192 264.279 571.366 264.279C570.453 264.279 568.627 264.279 567.714 263.365H566.801L559.497 267.931C552.192 260.626 543.975 253.322 536.671 246.018C502.89 219.541 460.891 203.107 417.98 198.542L417.067 191.237V192.15C414.328 190.324 413.414 187.585 412.501 184.846C412.501 174.803 412.501 164.76 414.328 153.804V152.891C414.328 151.065 415.241 149.239 415.241 147.413C416.154 143.761 416.154 140.109 417.067 136.457V130.979C417.98 121.848 410.675 112.718 401.545 111.805C396.067 110.892 390.589 113.631 386.024 118.196C382.372 121.848 380.546 126.414 380.546 130.979V135.544C380.546 139.196 381.459 142.848 382.372 146.5C383.285 148.326 383.285 150.152 383.285 151.978V152.891C385.111 162.934 385.111 172.977 385.111 183.933C384.198 186.672 383.285 189.411 380.546 191.237V193.063L379.633 200.368C369.59 201.281 359.547 203.107 348.591 204.933C305.679 214.063 266.419 236.888 236.29 268.844L230.812 265.192H229.899C228.986 265.192 228.073 266.105 226.247 266.105C224.421 266.105 222.595 265.192 220.769 264.279C212.552 257.887 204.334 250.583 197.943 243.279C197.03 241.453 195.204 240.54 194.291 239.627C191.552 236.888 189.726 234.149 186.987 231.41C186.074 230.497 185.161 230.497 184.248 229.584C183.335 228.671 183.335 228.671 183.335 228.671C179.683 225.932 175.118 224.106 170.553 224.106C165.075 224.106 160.51 225.932 157.771 230.497C152.293 238.714 154.119 249.67 161.423 256.061C162.336 256.061 162.336 256.974 162.336 256.974C162.336 256.974 164.162 258.8 165.075 258.8C167.814 260.626 171.466 262.452 175.118 264.279C176.944 265.192 178.77 266.105 180.596 267.018C189.726 272.496 198.856 277.974 206.161 285.278C207.987 287.104 209.813 290.756 208.9 293.495V292.582L214.378 298.06C213.465 299.886 212.552 300.799 211.639 302.625C183.335 347.363 171.466 400.317 179.683 452.359L172.379 454.185C172.379 455.098 171.466 455.098 171.466 455.098C170.553 457.837 167.814 459.663 165.075 461.489C155.032 464.228 144.989 466.054 134.032 466.967C132.206 466.967 130.38 466.967 128.554 467.88C124.902 467.88 121.25 468.793 117.598 468.793C116.685 468.793 115.772 469.706 113.946 469.706C113.033 469.706 113.033 469.706 112.12 470.619C102.077 472.446 95.6859 481.576 97.512 491.619C99.338 499.836 107.555 505.314 115.772 504.401C117.598 504.401 118.511 504.401 120.337 503.488C121.25 503.488 121.25 503.488 121.25 502.575C121.25 501.662 123.989 502.575 124.902 502.575C128.554 501.662 132.206 499.836 134.945 498.923C136.772 498.01 138.598 497.097 140.424 497.097H141.337C151.38 493.445 160.51 490.706 171.466 488.88H172.379C175.118 488.88 177.857 489.793 179.683 491.619C180.596 491.619 180.596 492.532 180.596 492.532L188.813 491.619C202.508 533.617 228.073 571.051 263.68 598.441C271.897 604.832 279.202 610.311 288.332 614.876L283.767 621.267C283.767 622.18 284.68 622.18 284.68 622.18C286.506 624.919 286.506 628.571 285.593 631.31C281.941 640.44 276.463 649.57 270.984 657.787V658.7C270.071 660.526 269.158 661.439 267.332 663.265C265.506 665.091 263.68 668.743 260.941 672.395C260.028 673.308 260.028 674.221 259.115 675.134C259.115 675.134 259.115 676.047 258.202 676.047C253.637 685.178 257.289 696.134 265.506 700.699C267.332 701.612 270.071 702.525 271.897 702.525C279.202 702.525 285.593 697.96 289.245 691.569C289.245 691.569 289.245 690.656 290.158 690.656C290.158 689.743 291.071 688.83 291.984 687.917C292.897 684.265 294.723 681.526 295.636 677.873L297.462 672.395C300.201 662.352 304.766 653.222 309.331 644.092C311.157 641.353 313.896 639.527 316.635 638.614C317.548 638.614 317.548 638.614 317.548 637.701L321.2 630.397C346.765 640.44 373.242 645.005 400.632 645.005C417.067 645.005 433.501 643.179 449.935 638.614C459.978 636.788 470.021 633.136 479.151 630.397L482.803 636.788C483.717 636.788 483.716 636.788 483.716 637.701C486.456 638.614 489.195 640.44 491.021 643.179C495.586 652.309 500.151 661.439 502.89 671.482V672.395L504.716 677.873C505.629 681.526 506.542 685.178 508.368 687.917C509.281 688.83 509.281 689.743 510.194 690.656C510.194 690.656 510.194 691.569 511.107 691.569C514.759 697.96 521.15 702.525 528.454 702.525C531.193 702.525 533.019 701.612 535.758 700.699C539.41 698.873 543.062 695.221 543.975 690.656C544.888 686.091 544.888 681.526 543.062 676.96C543.062 676.047 542.149 676.047 542.149 676.047C542.149 675.134 541.236 674.221 540.323 673.308C538.497 669.656 536.671 666.917 533.932 664.178C533.019 662.352 532.106 661.439 530.28 659.613V657.787C523.889 649.57 519.324 640.44 515.672 631.31C514.759 628.571 514.759 624.919 516.585 622.18C516.585 621.267 517.498 621.267 517.498 621.267L514.759 613.963C561.323 585.659 596.93 541.834 613.364 489.793L620.668 490.706C621.581 490.706 621.581 489.793 621.581 489.793C623.408 487.967 626.147 487.054 628.886 487.054H629.799C639.842 488.88 649.885 491.619 659.015 495.271H659.928C661.754 496.184 663.58 497.097 665.406 497.097C669.058 498.923 671.797 500.749 675.449 501.662C676.362 501.662 677.275 502.575 679.101 502.575C680.014 502.575 680.014 502.575 680.927 503.488C682.753 504.401 683.666 504.401 685.492 504.401C693.71 504.401 701.014 498.923 703.753 491.619C702.84 481.576 695.536 474.272 687.318 472.446ZM423.458 444.142L398.806 456.011L374.155 444.142L367.764 417.665L385.111 395.752H412.501L429.849 417.665L423.458 444.142ZM572.279 384.796C576.844 403.97 577.757 423.143 575.931 442.316L489.195 417.665C480.977 415.839 476.412 407.622 478.238 399.404C479.151 396.665 480.064 394.839 481.89 393.013L550.366 330.928C560.41 347.363 567.714 365.623 572.279 384.796ZM522.976 297.147L448.109 350.102C441.718 353.754 432.588 352.841 428.023 346.45C426.197 344.624 425.284 342.798 425.284 340.059L419.806 247.844C459.978 252.409 495.586 269.757 522.976 297.147ZM357.721 250.583L375.981 246.931L371.416 338.233C371.416 346.45 364.112 352.841 355.895 352.841C353.156 352.841 351.33 351.928 348.591 351.015L272.81 297.147C296.549 274.322 325.765 257.887 357.721 250.583ZM246.333 330.928L313.896 391.187C320.287 396.665 321.2 405.796 315.722 412.187C313.896 414.926 312.07 415.839 308.418 416.752L219.856 442.316C217.117 403.97 226.247 364.71 246.333 330.928ZM230.812 485.228L321.2 469.706C328.504 469.706 335.808 474.272 336.721 481.576C337.634 484.315 337.634 487.967 335.808 490.706L301.114 574.703C269.158 553.704 243.594 521.748 230.812 485.228ZM438.066 598.441C425.284 601.18 412.501 603.006 398.806 603.006C379.633 603.006 359.547 599.354 341.286 593.876L386.024 512.618C390.589 507.14 397.893 505.314 404.284 508.966C407.023 510.792 408.849 512.618 411.588 515.357L455.413 594.789C449.935 595.702 444.457 596.615 438.066 598.441ZM549.453 519.009C535.758 540.921 516.585 560.095 494.673 573.79L459.065 487.967C457.239 480.663 460.891 473.359 467.282 470.619C470.021 469.706 472.76 468.793 475.499 468.793L566.801 484.315C562.236 497.097 556.758 508.966 549.453 519.009Z" fill="white"/>
</g>
<defs>
<clipPath id="clip0_49_26">
<rect width="800" height="800" fill="white"/>
</clipPath>
</defs>
</svg>
