<svg width="579" height="800" viewBox="0 0 579 800" fill="none" xmlns="http://www.w3.org/2000/svg">
<g clip-path="url(#clip0_45_361)">
<path d="M463.031 319.835C420.942 134.158 333.216 84.7283 310.838 49.7868C301.611 34.3941 293.436 18.3942 286.371 1.89673C285.189 18.3916 283.017 28.7833 268.996 41.2919C240.845 66.3916 121.285 163.821 111.223 374.79C101.849 571.491 255.828 692.783 276.172 705.319C291.814 713.017 310.866 705.484 320.158 698.419C394.385 647.477 495.801 511.67 463.113 319.835" fill="#10AA50"/>
<path d="M292.749 600.577C288.873 649.264 286.096 677.553 276.254 705.374C276.254 705.374 282.715 751.725 287.251 800.825H303.306C307.135 766.249 312.983 731.927 320.818 698.034C300.034 687.807 293.546 643.299 292.749 600.577Z" fill="#B8C4C2"/>
<path d="M320.79 698.062C299.787 688.357 293.711 642.914 292.777 600.577C297.971 530.74 299.485 460.677 297.313 390.68C296.213 353.952 297.835 50.5016 288.268 6.07544C294.812 21.1221 302.353 35.7158 310.839 49.7593C333.217 84.7284 420.969 134.158 463.031 319.835C495.801 511.34 394.935 646.79 320.79 698.062Z" fill="#12924F"/>
</g>
<defs>
<clipPath id="clip0_45_361">
<rect width="579" height="800" fill="white"/>
</clipPath>
</defs>
</svg>
