<svg width="799" height="616" viewBox="0 0 799 616" fill="none" xmlns="http://www.w3.org/2000/svg">
<path d="M9.63331 477.482H35.7561V371.638L76.1994 463.911C80.9686 475.081 87.4993 479.028 100.313 479.028C113.126 479.028 119.409 475.081 124.178 463.911L164.621 371.638V477.482H190.744V371.814C190.744 361.506 186.725 356.515 178.433 353.944C158.587 347.589 145.271 353.089 139.243 366.836L99.556 457.902L61.1285 366.829C55.3482 353.089 41.7844 347.589 21.938 353.937C13.6458 356.515 9.62695 361.499 9.62695 371.808L9.63331 477.482ZM212.473 391.322H238.589V449.636C238.348 452.8 239.581 460.238 253.889 460.473C261.189 460.59 310.242 460.473 310.7 460.473V391.035H336.88C337.001 391.035 336.855 485.728 336.855 486.12C336.995 509.477 308.615 514.546 295.528 514.937H213.039V496.904C213.179 496.904 295.471 496.924 295.674 496.898C312.494 495.078 310.503 486.505 310.497 483.621V476.588H254.976C229.146 476.346 212.689 464.779 212.479 451.469C212.466 450.249 213.045 391.909 212.473 391.322Z" fill="#00618A"/>
<path d="M356.181 477.613H431.263C440.054 477.613 448.598 475.761 455.374 472.557C466.669 467.329 472.193 460.243 472.193 450.952V431.718C472.193 424.125 465.919 417.032 453.613 412.316C447.085 409.779 439.044 408.44 431.257 408.44H399.615C389.069 408.44 384.047 405.236 382.795 398.15C382.547 397.304 382.547 396.632 382.547 395.786V383.804C382.547 383.132 382.547 382.452 382.795 381.613C384.047 376.212 386.813 374.693 396.106 373.847L398.617 373.681H473.197V356.138H399.875C389.33 356.138 383.806 356.811 378.784 358.329C363.217 363.224 356.429 370.983 356.429 384.483V399.835C356.429 411.65 369.745 421.774 392.088 424.138C394.606 424.298 397.11 424.477 399.621 424.477H426.744C427.748 424.477 428.753 424.477 429.509 424.638C437.798 425.31 441.307 426.835 443.824 429.866C444.469 430.466 444.981 431.197 445.326 432.011C445.671 432.825 445.841 433.703 445.826 434.588V449.946C445.826 451.798 444.574 454.162 442.063 456.187C439.807 458.212 436.037 459.563 431.016 459.903L428.25 460.07H356.181V477.613ZM635.109 447.076C635.109 465.125 648.42 475.248 675.282 477.279C677.793 477.446 680.304 477.613 682.815 477.613H750.867V460.07H682.319C667 460.07 661.228 456.187 661.228 446.903V356.125H635.116L635.109 447.076ZM488.86 447.986V385.419C488.86 369.529 499.933 359.886 521.824 356.843C524.157 356.505 526.511 356.336 528.867 356.336H578.441C580.959 356.336 583.221 356.503 585.732 356.843C607.624 359.886 618.703 369.523 618.703 385.419V447.986C618.703 460.89 614 467.784 603.162 472.282L628.893 495.687H598.566L577.755 476.748L556.804 478.087H528.867C523.678 478.053 518.516 477.314 513.523 475.889C496.913 471.327 488.86 462.53 488.86 447.986ZM517.044 446.467C517.044 447.313 517.292 448.165 517.546 449.177C519.053 456.45 525.854 460.505 536.164 460.505H559.887L538.097 440.675H568.424L587.423 457.974C590.932 456.084 593.233 453.214 594.04 449.517C594.288 448.671 594.288 447.825 594.288 446.98V386.957C594.288 386.284 594.288 385.432 594.04 384.586C592.527 377.82 585.732 373.937 575.67 373.937H536.158C524.589 373.937 517.038 379.012 517.038 386.957L517.044 446.467Z" fill="#E48E00"/>
<path d="M775.771 324.537C759.759 324.098 747.526 325.592 737.063 330.01C734.089 331.269 729.352 331.301 728.87 335.032C730.499 336.755 730.753 339.317 732.053 341.428C734.552 345.477 738.769 350.906 742.529 353.748C746.632 356.857 750.868 360.188 755.282 362.883C763.114 367.677 771.865 370.41 779.418 375.204C783.863 378.039 788.277 381.599 792.62 384.797C794.77 386.367 796.203 388.827 799 389.813V389.361C797.535 387.492 797.155 384.924 795.81 382.966L789.887 377.028C784.098 369.323 776.754 362.565 768.935 356.946C762.708 352.464 748.769 346.405 746.169 339.139L745.713 338.688C750.126 338.186 755.301 336.583 759.372 335.49C766.221 333.646 772.34 334.123 779.411 332.292L788.974 329.546V327.728C785.404 324.053 782.848 319.184 778.955 315.859C768.764 307.156 757.628 298.459 746.169 291.199C739.815 287.182 731.958 284.569 725.217 281.161C722.959 280.011 718.977 279.419 717.474 277.506C713.929 272.986 712.008 267.258 709.274 261.988C703.437 250.603 697.97 239.031 692.882 227.29C689.432 219.375 687.174 211.569 682.869 204.468C662.189 170.387 639.93 149.815 605.452 129.599C598.115 125.295 589.281 123.604 579.953 121.385L564.923 120.47C561.873 119.192 558.69 115.441 555.817 113.623C544.39 106.388 515.092 90.6543 506.633 111.347C501.293 124.405 514.623 137.145 519.385 143.763C522.727 148.403 527.014 153.604 529.405 158.823C530.977 162.256 531.244 165.695 532.595 169.325C535.898 178.263 538.784 187.996 543.064 196.254C545.227 200.437 547.618 204.843 550.351 208.581C552.025 210.869 554.904 211.887 555.354 215.428C552.545 219.369 552.38 225.497 550.801 230.488C543.686 252.986 546.368 280.951 556.724 297.601C559.901 302.719 567.384 313.678 577.67 309.47C586.668 305.795 584.664 294.41 587.239 284.359C587.823 282.089 587.461 280.411 588.602 278.885V279.343L596.802 295.776C602.871 305.573 613.632 315.802 622.758 322.712C627.488 326.291 631.217 332.489 637.33 334.581V334.117H636.88C635.688 332.267 633.843 331.504 632.321 330.01C628.757 326.507 624.793 322.159 621.851 318.141C613.55 306.851 606.219 294.486 599.535 281.619C596.345 275.478 593.574 268.701 590.885 262.446C589.845 260.036 589.858 256.387 587.702 255.147C584.747 259.725 580.416 263.431 578.133 268.841C574.493 277.487 574.023 288.033 572.673 298.968L571.76 299.419C565.412 297.887 563.186 291.339 560.827 285.726C554.866 271.53 553.756 248.663 559.007 232.319C560.364 228.085 566.496 214.766 564.01 210.857C562.824 206.96 558.912 204.709 556.73 201.721C553.868 197.723 551.426 193.439 549.444 188.937C544.561 177.869 542.284 165.441 537.154 154.246C534.694 148.893 530.546 143.483 527.135 138.728C523.361 133.451 519.132 129.573 516.202 123.203C515.162 120.94 513.748 117.31 515.289 114.983C515.777 113.413 516.481 112.758 518.028 112.243C520.666 110.203 528.022 112.924 530.775 114.068C538.08 117.113 544.174 120.006 550.363 124.112C553.331 126.089 556.331 129.904 559.926 130.959H564.023C570.434 132.434 577.619 131.41 583.605 133.235C594.196 136.464 603.683 141.48 612.294 146.935C638.542 163.553 659.995 187.201 674.682 215.415C677.041 219.96 678.068 224.29 680.142 229.108C684.34 238.822 689.629 248.822 693.801 258.326C697.968 267.805 702.033 277.372 707.924 285.262C711.018 289.407 722.978 291.632 728.413 293.933C732.224 295.548 738.464 297.232 742.073 299.406C748.966 303.577 755.65 308.542 762.112 313.106C765.339 315.408 775.277 320.411 775.771 324.537ZM572.216 150.609C569.455 150.564 566.7 150.872 564.017 151.525V151.976H564.473C566.065 155.263 568.874 157.373 570.846 160.196L575.406 169.783L575.856 169.331C578.678 167.341 579.965 164.157 579.953 159.287C578.818 158.092 578.653 156.598 577.676 155.18C576.382 153.273 573.859 152.205 572.216 150.609Z" fill="#00618A"/>
</svg>
