<svg width="1148" height="800" viewBox="0 0 1148 800" fill="none" xmlns="http://www.w3.org/2000/svg">
<path d="M213.219 278C199.609 278 190.536 288.913 190.536 302.555V430.785L46.2731 285.275C39.0146 278 26.3121 276.181 17.239 279.819C8.16584 283.457 0 292.551 0 302.555V490.808C0 504.449 13.6097 515.362 27.2195 515.362C40.8292 515.362 54.4389 504.449 54.4389 490.808V362.577L200.517 508.087C205.053 512.634 211.404 515.362 217.756 515.362C220.478 515.362 221.385 514.453 224.107 513.543C233.18 509.906 235.902 500.811 235.902 490.808V303.464C235.902 289.823 226.829 278 213.219 278ZM391.96 385.313C379.258 385.313 367.463 398.045 367.463 410.777C367.463 423.509 379.258 436.242 391.96 436.242L451.843 439.879L438.233 473.528H361.111L323.004 401.683L362.019 328.019H444.584L463.638 364.396H513.54L480.877 292.551L473.619 282.547H332.077L325.726 293.46L272.195 387.132L265.843 398.955L272.195 410.777L324.819 504.449L332.077 519H469.082L475.433 503.54L514.448 421.691L531.687 382.585H491.765L391.96 385.313ZM580.682 278C567.979 278 553.462 289.823 553.462 302.555V364.396H607.901V303.464C607.901 289.823 593.384 278 580.682 278ZM856.506 280.728C847.432 277.091 834.73 278.909 828.379 286.185L680.486 431.694V303.464C680.486 289.823 671.413 278.909 657.803 278.909C644.194 278.909 635.121 289.823 635.121 303.464V491.717C635.121 501.721 641.472 510.815 650.545 514.453C653.267 515.362 656.896 516.272 659.618 516.272C665.969 516.272 674.135 513.543 678.672 508.996L825.657 363.487V491.717C825.657 505.358 834.73 516.272 848.34 516.272C861.949 516.272 871.023 505.358 871.023 491.717V303.464C871.023 293.46 865.579 284.366 856.506 280.728ZM1054.3 397.136L1130.51 320.743C1140.5 310.74 1140.5 295.279 1130.51 286.185C1120.53 276.181 1105.11 276.181 1096.04 286.185L1019.82 362.577L943.608 286.185C933.627 276.181 918.203 276.181 909.13 286.185C899.149 296.189 899.149 311.649 909.13 320.743L985.344 397.136L909.13 473.528C899.149 483.532 899.149 498.992 909.13 508.087C913.666 512.634 920.018 515.362 926.369 515.362C932.72 515.362 939.071 512.634 943.608 508.087L1019.82 431.694L1096.04 508.087C1100.57 512.634 1106.92 515.362 1113.28 515.362C1119.63 515.362 1125.98 512.634 1130.51 508.087C1140.5 498.083 1140.5 482.623 1130.51 473.528L1054.3 397.136ZM553.462 490.808C553.462 503.54 567.072 515.362 580.682 515.362C593.384 515.362 607.901 503.54 607.901 490.808V382.585H553.462V490.808Z" fill="#009900"/>
</svg>
