<svg width="800" height="800" viewBox="0 0 800 800" fill="none" xmlns="http://www.w3.org/2000/svg">
<g filter="url(#filter0_d_47_4)">
<path d="M414.838 31.4682C403.81 25.232 390.716 25.232 379.695 31.4682L89.6038 199.902C78.5829 206.142 72.381 217.925 72.381 230.401V567.963C72.381 580.443 79.2686 592.222 89.6038 598.462L379.695 766.901C390.716 773.137 403.81 773.137 414.838 766.901L704.922 598.462C715.95 592.222 722.149 580.443 722.149 567.963V230.401C722.149 217.925 715.257 206.142 704.922 199.902L414.838 31.4682Z" fill="url(#paint0_linear_47_4)"/>
<path d="M705.615 199.903L414.153 31.4648C411.394 30.082 407.951 28.6953 405.196 28.002L78.5868 590.147C81.3411 593.61 84.7887 596.383 88.2325 598.463L379.699 766.901C387.97 771.751 397.612 773.137 406.572 770.364L713.196 206.143C711.128 203.37 708.374 201.29 705.615 199.903Z" fill="url(#paint1_linear_47_4)"/>
<path d="M705.623 598.452C713.89 593.598 720.092 585.282 722.846 576.269L403.817 27.2974C395.551 25.9107 386.591 26.6041 379.014 31.4574L89.6155 199.198L401.749 771.739C405.886 771.046 410.713 769.659 414.846 767.579L705.623 598.452Z" fill="url(#paint2_linear_47_4)"/>
</g>
<defs>
<filter id="filter0_d_47_4" x="68.381" y="26.6665" width="658.465" height="753.111" filterUnits="userSpaceOnUse" color-interpolation-filters="sRGB">
<feFlood flood-opacity="0" result="BackgroundImageFix"/>
<feColorMatrix in="SourceAlpha" type="matrix" values="0 0 0 0 0 0 0 0 0 0 0 0 0 0 0 0 0 0 127 0" result="hardAlpha"/>
<feOffset dy="4"/>
<feGaussianBlur stdDeviation="2"/>
<feComposite in2="hardAlpha" operator="out"/>
<feColorMatrix type="matrix" values="0 0 0 0 0 0 0 0 0 0 0 0 0 0 0 0 0 0 0.25 0"/>
<feBlend mode="normal" in2="BackgroundImageFix" result="effect1_dropShadow_47_4"/>
<feBlend mode="normal" in="SourceGraphic" in2="effect1_dropShadow_47_4" result="shape"/>
</filter>
<linearGradient id="paint0_linear_47_4" x1="515.41" y1="156.912" x2="250.602" y2="693.914" gradientUnits="userSpaceOnUse">
<stop stop-color="#3F873F"/>
<stop offset="0.3296" stop-color="#3F8B3D"/>
<stop offset="0.6367" stop-color="#3E9638"/>
<stop offset="0.9341" stop-color="#3DA92E"/>
<stop offset="1" stop-color="#3DAE2B"/>
</linearGradient>
<linearGradient id="paint1_linear_47_4" x1="353.181" y1="438.6" x2="1092.21" y2="-104.203" gradientUnits="userSpaceOnUse">
<stop offset="0.1376" stop-color="#3F873F"/>
<stop offset="0.4016" stop-color="#52A044"/>
<stop offset="0.7129" stop-color="#64B749"/>
<stop offset="0.9081" stop-color="#6ABF4B"/>
</linearGradient>
<linearGradient id="paint2_linear_47_4" x1="61.7526" y1="399.061" x2="732.998" y2="399.061" gradientUnits="userSpaceOnUse">
<stop offset="0.0919165" stop-color="#6ABF4B"/>
<stop offset="0.2871" stop-color="#64B749"/>
<stop offset="0.5984" stop-color="#52A044"/>
<stop offset="0.8624" stop-color="#3F873F"/>
</linearGradient>
</defs>
</svg>
