<svg width="1086" height="800" viewBox="0 0 1086 800" fill="none" xmlns="http://www.w3.org/2000/svg">
<path d="M2 189H1086V550.714H544V611H303.111V550.714H2V189ZM62.2222 490.429H182.667V309.571H242.889V490.429H303.111V249.286H62.2222V490.429ZM363.333 249.286V550.714H483.778V490.429H604.222V249.286H363.333ZM483.778 309.571H544V430.143H483.778V309.571ZM664.444 249.286V490.429H784.889V309.571H845.111V490.429H905.333V309.571H965.556V490.429H1025.78V249.286H664.444Z" fill="#CB3837"/>
<path d="M61 490H182V310H242.5V490H303V250H61V490Z" fill="white"/>
<path d="M363 250V551H483.5V490.8H604V250H363ZM543.75 430.6H483.5V310.2H543.75V430.6Z" fill="white"/>
<path d="M664 250V490H784.667V310H845V490H905.333V310H965.667V490H1026V250H664Z" fill="white"/>
</svg>
