<svg width="800" height="800" viewBox="0 0 800 800" fill="none" xmlns="http://www.w3.org/2000/svg">
<path d="M447.721 655.06H737.931C747.148 655.061 756.204 652.708 764.186 648.237C772.169 643.766 778.797 637.336 783.404 629.591C788.011 621.847 790.434 613.062 790.43 604.122C790.425 595.181 787.994 586.399 783.381 578.659L588.484 251.216C583.878 243.473 577.251 237.044 569.27 232.573C561.289 228.103 552.236 225.75 543.02 225.75C533.804 225.75 524.75 228.103 516.77 232.573C508.789 237.044 502.162 243.473 497.555 251.216L447.721 334.996L350.287 171.165C345.676 163.423 339.047 156.995 331.063 152.525C323.081 148.056 314.025 145.703 304.809 145.703C295.591 145.703 286.536 148.056 278.553 152.525C270.57 156.995 263.941 163.423 259.33 171.165L16.8051 578.659C12.1913 586.399 9.76012 595.181 9.75611 604.122C9.7521 613.062 12.1754 621.847 16.7823 629.591C21.3892 637.336 28.0172 643.766 35.9997 648.237C43.9823 652.708 53.0378 655.061 62.2555 655.06H244.424C316.602 655.06 369.83 624.307 406.457 564.311L495.378 414.937L543.006 334.996L685.946 575.12H495.378L447.721 655.06ZM241.455 575.037L114.324 575.01L304.894 254.863L399.98 414.937L336.315 521.927C311.992 560.855 284.36 575.037 241.455 575.037Z" fill="#00DC82"/>
</svg>
