<svg width="1177" height="800" viewBox="0 0 1177 800" fill="none" xmlns="http://www.w3.org/2000/svg">
<path d="M138.309 358.762C142.474 345.945 148.726 334.65 157.024 324.766C165.353 314.915 175.738 307.062 188.179 301.197C200.619 295.332 215.007 292.389 231.45 292.389C247.893 292.389 262.389 295.332 274.721 301.197C287.162 307.062 297.547 314.882 305.877 324.766C314.206 334.65 320.481 345.945 324.591 358.762C328.756 371.578 330.844 384.829 330.844 398.623C330.844 412.416 328.756 425.776 324.591 438.592C320.427 451.408 314.174 462.704 305.877 472.588C297.547 482.439 287.162 490.291 274.721 496.048C262.281 501.815 247.893 504.715 231.45 504.715C215.007 504.715 200.511 501.826 188.179 496.048C175.738 490.27 165.353 482.471 157.024 472.588C148.694 462.736 142.42 451.408 138.309 438.592C134.144 425.776 132.056 412.525 132.056 398.623C132.056 384.72 134.144 371.469 138.309 358.762ZM163.622 429.034C166.338 438.983 170.611 447.933 176.387 455.861C182.207 463.823 189.693 470.198 198.78 475.086C207.9 479.919 218.793 482.33 231.342 482.33C243.999 482.33 254.817 479.919 263.903 475.086C273.023 470.252 280.455 463.899 286.296 455.861C292.116 447.9 296.379 438.918 299.061 429.034C301.777 419.074 303.14 408.941 303.14 398.731C303.14 388.522 301.777 378.421 299.061 368.428C296.346 358.436 292.073 349.53 286.296 341.601C280.476 333.64 272.99 327.264 263.903 322.377C254.784 317.543 243.891 315.121 231.342 315.121C218.685 315.121 207.867 317.543 198.78 322.377C189.661 327.21 182.229 333.564 176.387 341.601C170.568 349.573 166.294 358.545 163.622 368.428C160.907 378.377 159.555 388.522 159.555 398.731C159.555 408.941 160.907 419.042 163.622 429.034Z" fill="#5586A4"/>
<path d="M371.974 370.709V388.196H372.411C375.98 381.016 381.584 375.814 389.178 372.555C396.826 369.297 405.189 367.668 414.384 367.668C424.574 367.668 433.423 369.503 440.995 373.175C448.557 376.846 454.842 381.798 459.818 388.054C464.827 394.31 468.603 401.522 471.177 409.668C473.73 417.836 475.007 426.503 475.007 435.627C475.007 444.794 473.773 453.439 471.307 461.694C468.841 469.861 465.108 477.008 460.056 483.09C455.048 489.173 448.806 493.952 441.233 497.427C433.661 500.924 424.899 502.684 414.838 502.684C411.604 502.684 408.001 502.351 404.02 501.686C400.028 501.011 396.08 499.937 392.121 498.427C388.215 496.929 384.516 494.876 380.978 492.291C377.495 489.706 374.563 486.491 372.194 482.646H371.757V549.443H349.905V370.232L371.974 370.709ZM449.537 416.652C447.925 410.906 445.47 405.791 442.17 401.229C438.86 396.733 434.619 393.148 429.405 390.476C424.234 387.805 418.155 386.48 411.231 386.48C403.94 386.48 397.709 387.902 392.625 390.737C387.54 393.572 383.386 397.276 380.184 401.816C376.961 406.399 374.635 411.612 373.196 417.456C371.757 423.288 371.032 429.186 371.032 435.16C371.032 441.503 371.79 447.65 373.326 453.515C374.851 459.434 377.263 464.594 380.574 469.155C383.873 473.652 388.157 477.28 393.447 480.017C398.704 482.764 405.022 484.144 412.486 484.144C419.94 484.144 426.117 482.732 431.201 479.897C436.285 477.062 440.234 473.315 443.317 468.601C446.368 463.942 448.564 458.609 449.927 452.635C451.279 446.629 451.96 440.471 451.96 434.171C451.958 428.176 451.152 422.333 449.537 416.576V416.652Z" fill="#5586A4"/>
<path d="M586.166 492.355C576.289 499.686 563.881 503.325 548.844 503.325C538.286 503.325 529.156 501.663 521.367 498.329C513.621 494.994 507.087 490.324 501.787 484.318C496.508 478.311 492.548 471.176 489.887 462.812C487.248 454.471 485.766 445.434 485.419 435.551C485.419 425.71 486.945 416.761 490.017 408.506C493.078 400.338 497.384 393.3 502.89 387.218C508.429 381.212 515.006 376.552 522.579 373.207C530.162 369.873 538.481 368.2 547.459 368.2C559.251 368.2 568.987 370.59 576.776 375.347C584.532 380.104 590.731 386.165 595.491 393.485C600.175 400.838 603.42 408.908 605.205 417.488C606.99 426.177 607.715 434.432 607.379 442.252H508.613C508.442 447.911 509.118 453.331 510.647 458.327C512.175 463.323 514.638 467.895 518.035 471.795C521.432 475.705 525.77 478.822 531.016 481.157C536.285 483.492 542.483 484.654 549.623 484.654C558.797 484.654 566.283 482.569 572.124 478.398C577.987 474.228 581.849 467.885 583.699 459.391H605.118C602.219 473.837 595.837 484.806 585.971 492.083L586.166 492.355ZM580.876 409.375C578.928 404.889 576.3 401.012 572.99 397.754C569.679 394.517 565.774 391.932 561.306 390.02C556.806 388.109 551.841 387.142 546.378 387.142C540.774 387.142 535.722 388.1 531.233 390.02C526.733 391.932 522.871 394.56 519.658 397.884C516.434 401.207 513.892 405.085 512.02 409.505C510.149 413.915 509.046 418.618 508.71 423.625H584.327C583.984 418.629 582.834 413.893 580.887 409.397L580.876 409.375Z" fill="#5586A4"/>
<path d="M642.419 370.709V391.237H642.829C651.883 375.597 666.195 367.668 685.883 367.668C694.603 367.668 701.894 368.841 707.627 371.176C713.436 373.511 718.142 376.77 721.69 380.94C725.282 385.111 727.802 390.075 729.252 395.82C730.702 401.577 731.426 407.985 731.426 414.936V500.088H709.574V412.546C709.574 404.542 707.184 398.21 702.413 393.539C697.632 388.869 691.054 386.534 682.725 386.534C676.072 386.534 670.284 387.54 665.416 389.542C660.559 391.541 656.502 394.376 653.3 398.047C650.066 401.718 647.632 406.008 646.02 410.972C644.397 415.892 643.586 421.279 643.586 427.155V500.251H621.734V371.002L642.419 370.709Z" fill="#5586A4"/>
<path d="M882.573 498.872C872.707 502.955 862.777 504.997 852.716 504.997C836.814 504.997 822.535 502.282 809.878 496.873C797.221 491.453 786.511 483.948 777.857 474.499C769.149 464.995 762.496 453.863 757.844 440.938C753.203 428.122 750.877 414.219 750.877 399.448C750.877 384.242 753.192 370.122 757.822 357.089C762.452 344.055 769.073 332.651 777.835 322.985C786.522 313.286 797.199 305.715 809.856 300.176C822.513 294.659 836.792 291.9 852.695 291.9C863.328 291.9 873.681 293.475 883.633 296.614C893.597 299.763 902.565 304.379 910.57 310.516C918.597 316.609 925.174 324.093 930.475 333.107C935.7 342.046 938.891 352.332 940.059 363.845H896.572C893.856 352.44 888.631 343.969 880.886 338.212C873.14 332.521 863.794 329.675 852.759 329.675C842.504 329.675 833.828 331.619 826.689 335.519C819.549 339.418 813.707 344.653 809.272 351.159C804.815 357.719 801.58 365.17 799.558 373.533C797.524 381.896 796.507 390.585 796.507 399.491C796.507 408.05 797.523 416.326 799.558 424.472C801.591 432.553 804.837 439.787 809.294 446.303C813.75 452.766 819.56 457.925 826.71 461.835C833.872 465.734 842.612 467.678 852.889 467.678C868.034 467.678 879.609 463.942 887.939 456.491C896.171 449.019 900.92 438.136 902.327 424.016H856.459V390.563H943.434V500.262H914.551L909.921 477.236C901.797 487.489 892.829 494.614 882.876 498.741L882.573 498.872Z" fill="#5586A4"/>
<path d="M1017.8 297.939V463.03H1118.83V500.718H972.794V297.613L1017.8 297.939Z" fill="#5586A4"/>
<path d="M802.522 526.025C732.963 567.515 628.355 591.192 512.605 591.192C302.739 591.192 133.982 505.606 133.982 400.034C133.982 294.463 303.821 208.876 512.605 208.876C629.437 208.876 733.288 232.88 803.603 274.696C727.662 204.749 591.574 155.222 435.798 155.222C197.807 155.184 4.16797 264.921 4.16797 399.6C4.14742 534.279 197.807 643.978 435.798 643.978C590.493 644.004 726.797 594.994 802.522 525.59V526.025Z" fill="#5586A4"/>
<path d="M1177 481.494C1177 484.904 1176.15 488.087 1174.44 491.03C1172.73 493.973 1170.41 496.298 1167.46 497.992C1164.52 499.686 1161.34 500.533 1157.93 500.533C1154.53 500.533 1151.37 499.685 1148.41 497.992C1145.47 496.298 1143.15 493.973 1141.44 491.03C1139.73 488.087 1138.88 484.904 1138.88 481.494C1138.88 478.094 1139.73 474.923 1141.44 471.968C1143.15 469.014 1145.47 466.69 1148.41 464.996C1151.36 463.301 1154.53 462.454 1157.93 462.454C1161.34 462.454 1164.52 463.302 1167.46 464.996C1170.41 466.69 1172.73 469.014 1174.44 471.968C1176.14 474.923 1177 478.094 1177 481.494ZM1173.31 481.494C1173.31 477.247 1171.81 473.63 1168.8 470.632C1165.79 467.624 1162.17 466.125 1157.94 466.125C1153.69 466.125 1150.07 467.624 1147.08 470.632C1144.07 473.641 1142.57 477.258 1142.57 481.494C1142.57 485.73 1144.07 489.357 1147.08 492.355C1150.09 495.364 1153.7 496.862 1157.94 496.862C1162.19 496.862 1165.8 495.364 1168.8 492.355C1171.8 489.346 1173.31 485.73 1173.31 481.494ZM1149.3 471.306H1158.42C1160.99 471.306 1162.87 471.825 1164.02 472.87C1165.17 473.909 1165.76 475.303 1165.76 477.051C1165.76 478.42 1165.32 479.593 1164.43 480.592C1163.55 481.59 1162.16 482.319 1160.26 482.765C1161.04 483.064 1161.62 483.38 1161.99 483.713C1162.51 484.18 1163.05 484.864 1163.61 485.787C1163.64 485.853 1164.74 487.818 1166.9 491.674H1160.9C1158.96 487.797 1157.65 485.483 1156.98 484.723C1156.32 483.967 1155.65 483.582 1154.98 483.582C1154.83 483.582 1154.63 483.607 1154.36 483.657V491.673H1149.29L1149.3 471.306ZM1154.38 479.941H1156.57C1158.04 479.941 1159.07 479.704 1159.67 479.23C1160.26 478.755 1160.56 478.144 1160.56 477.395C1160.56 476.646 1160.28 476.037 1159.7 475.559C1159.13 475.085 1158.15 474.849 1156.77 474.849H1154.37L1154.38 479.941Z" fill="#5586A4"/>
</svg>
