<svg width="800" height="800" viewBox="0 0 800 800" fill="none" xmlns="http://www.w3.org/2000/svg">
<g clip-path="url(#clip0_44_329)">
<mask id="mask0_44_329" style="mask-type:luminance" maskUnits="userSpaceOnUse" x="0" y="54" width="803" height="689">
<path d="M802.356 54.8494H0.0548096V742.411H802.356V54.8494Z" fill="white"/>
</mask>
<g mask="url(#mask0_44_329)">
<path d="M770.795 584.932C728.055 607.288 506.247 698.521 458.466 723.562C410.685 748.603 385.096 747.89 347.726 730.027C310.356 712.164 75.1233 616.493 32.4932 596.11C11.0137 586.027 0.0548096 577.425 0.0548096 569.37V488.219C0.0548096 488.219 307.342 421.534 356.932 403.562C406.521 385.589 423.671 385.151 465.808 400.603C507.945 416.055 760.548 461.644 802.247 476.767V556.767C802.247 565.096 792.658 573.206 770.795 584.877V584.932Z" fill="#A32422"/>
<path d="M770.795 504.164C728.055 526.411 506.247 617.644 458.466 642.247C410.685 666.849 385.096 666.63 347.726 648.822C310.356 631.014 75.1233 535.343 32.4932 515.123C-10.137 494.904 -10.9589 480.767 30.8493 464.438C72.6576 448.11 307.342 356.219 356.932 338.137C406.521 320.055 423.671 319.671 465.808 335.178C507.945 350.685 728.822 438.411 770.301 453.699C811.781 468.986 813.699 481.534 770.795 503.726V504.164Z" fill="#DC382C"/>
<path d="M770.795 452.767C728.055 475.069 506.247 566.247 458.466 590.849C410.685 615.452 385.315 615.233 347.945 597.315C310.575 579.397 75.1233 484.274 32.4932 463.945C11.0137 453.754 0.0548096 445.206 0.0548096 437.096V356.219C0.0548096 356.219 307.342 289.315 356.932 271.343C406.521 253.37 423.671 252.877 465.808 268.548C507.945 284.219 760.548 329.37 802.247 344.603V424.603C802.247 432.932 792.658 441.26 770.795 452.767Z" fill="#A32422"/>
<path d="M770.795 371.617C728.055 393.973 506.247 485.151 458.466 509.754C410.685 534.356 385.096 534.192 347.726 516.329C310.356 498.466 75.1233 403.178 32.4932 382.795C-10.1369 362.411 -10.9041 348.548 30.8494 332.219C72.6028 315.891 307.343 223.781 356.932 206.192C406.521 188.603 423.671 187.507 465.808 202.795C507.945 218.082 728.822 306.575 770.301 321.425C811.781 336.274 813.699 349.315 770.795 371.452V371.617Z" fill="#DC382C"/>
<path d="M770.795 315.617C728.055 337.973 506.247 429.206 458.466 453.754C410.685 478.301 385.315 478.137 347.945 460.329C310.575 442.521 75.1233 347.123 32.4932 326.795C11.0137 316.712 0.0548096 308.11 0.0548096 300V218.849C0.0548096 218.849 307.342 152.164 356.932 134.247C406.521 116.329 423.671 115.781 465.808 131.233C507.945 146.685 760.438 192.274 802.137 207.507V287.507C802.247 295.945 792.658 304.164 770.795 315.617Z" fill="#A32422"/>
<path d="M770.795 234.575C728.055 256.493 506.247 348.274 458.466 372.658C410.685 397.041 385.096 396.986 347.726 379.233C310.356 361.48 75.1233 265.973 32.4932 245.699C-10.137 225.425 -10.9589 211.343 30.8493 195.014C72.6576 178.685 307.342 86.6303 356.932 68.7672C406.521 50.9042 423.671 50.3563 465.808 65.8083C507.945 81.2604 728.822 169.096 770.301 184.329C811.781 199.562 813.699 212.219 770.795 234.411V234.575Z" fill="#DC382C"/>
</g>
<path d="M413.753 119.343L466.685 101.973L452.329 136.274L506.192 156.438L436.767 163.671L421.151 201.151L396.055 159.343L315.781 152.11L375.726 130.521L357.699 97.3152L413.753 119.343Z" fill="white"/>
<path d="M417.096 338.137L287.343 284.274L473.206 255.726L417.096 338.137Z" fill="white"/>
<path d="M237.205 177.26C292 177.26 336.548 194.521 336.548 215.616C336.548 236.712 291.89 253.973 237.205 253.973C182.521 253.973 137.808 236.712 137.808 215.616C137.808 194.521 182.356 177.26 237.205 177.26Z" fill="white"/>
<path d="M588.438 166.685L698.411 210.137L588.548 253.589L588.438 166.685Z" fill="#741113"/>
<path d="M588.438 166.685L588.548 253.589L576.603 258.247L466.685 214.795L588.438 166.685Z" fill="#AC2724"/>
</g>
<defs>
<clipPath id="clip0_44_329">
<rect width="800" height="800" fill="white"/>
</clipPath>
</defs>
</svg>
