<svg width="881" height="719" viewBox="0 0 881 719" fill="none" xmlns="http://www.w3.org/2000/svg">
<g clip-path="url(#clip0_59_14)">
<path fill-rule="evenodd" clip-rule="evenodd" d="M736.963 50.9531L755.532 75.3904C760.407 81.8401 759.188 91.0847 752.736 95.9578L733.019 110.935C736.604 120.467 738.899 130.643 739.831 141.034L762.271 144.116C770.301 145.191 775.894 152.644 774.818 160.67L770.66 191.127C769.584 199.153 762.128 204.815 754.098 203.668L729.578 200.3C725.205 209.831 719.612 218.574 713.016 226.385L726.782 244.445C731.657 250.894 730.367 260.139 723.914 265.012L699.466 283.573C693.013 288.446 683.764 287.156 678.889 280.778L663.905 261.071C654.297 264.654 644.188 266.947 633.721 267.879L630.638 290.309C629.562 298.336 622.106 303.925 614.076 302.85L583.605 298.694C575.575 297.619 569.983 290.166 571.058 282.14L574.428 257.631C564.964 253.259 556.146 247.669 548.331 241.148L530.263 254.836C523.811 259.709 514.562 258.491 509.686 252.041L491.117 227.604C486.242 221.154 487.461 211.909 493.913 207.036L513.63 192.059C510.045 182.456 507.751 172.351 506.819 161.96L484.378 158.878C476.348 157.803 470.684 150.35 471.831 142.324L475.989 111.867C477.137 103.841 484.521 98.251 492.551 99.326L517.071 102.694C521.445 93.2346 527.037 84.4199 533.561 76.6086L519.867 58.5494C514.992 52.1714 516.211 42.9268 522.663 38.0537L547.112 19.4928C553.564 14.6197 562.813 15.838 567.689 22.2877L582.673 41.9952C592.209 38.412 602.389 36.1187 612.785 35.1871L615.868 12.7564C616.944 4.73012 624.4 -0.931295 632.43 0.143658L662.901 4.30014C670.931 5.37509 676.595 12.8281 675.448 20.8544L672.078 45.3633C681.613 49.7348 690.36 55.3246 698.247 61.9176L716.314 48.2299C722.767 43.2851 732.016 44.5034 736.963 50.9531ZM212.722 481.006V362.761H273.663C284.991 362.761 293.595 363.693 299.546 365.699C305.496 367.634 310.372 371.217 313.957 376.449C317.613 381.752 319.477 388.13 319.477 395.655C319.477 402.176 318.043 407.909 315.247 412.639C312.451 417.44 308.579 421.31 303.704 424.248C300.621 426.112 296.319 427.688 290.87 428.906C295.244 430.411 298.399 431.773 300.334 433.278C301.697 434.281 303.632 436.359 306.142 439.513C308.651 442.666 310.372 445.174 311.232 446.894L329.013 481.077H287.716L268.215 445.031C265.705 440.373 263.554 437.291 261.618 435.93C258.966 434.138 255.955 433.206 252.657 433.206H249.43V481.077H212.722V481.006ZM341.631 686.895H273.377L263.554 719H202.039L275.384 524.147H341.344L414.403 719H351.31L341.631 686.895ZM328.869 644.685L307.576 574.598L286.21 644.685H328.869ZM428.598 524.147H528.829C550.697 524.147 567.043 529.307 577.869 539.698C588.695 550.089 594.144 564.924 594.144 584.058C594.144 603.765 588.194 619.173 576.364 630.281C564.534 641.389 546.395 646.907 522.09 646.907H489.038V719H428.598V524.147ZM489.038 607.42H503.879C515.566 607.42 523.811 605.414 528.543 601.329C533.274 597.316 535.64 592.084 535.64 585.85C535.64 579.758 533.561 574.527 529.475 570.299C525.388 566.07 517.645 563.921 506.317 563.921H489.038V607.42ZM618.521 524.147H678.961V719H618.521V524.147ZM249.43 410.776H264.845C266.494 410.776 269.72 410.202 274.524 409.127C276.961 408.626 278.969 407.407 280.475 405.401C282.052 403.394 282.769 401.101 282.769 398.521C282.769 394.723 281.55 391.713 279.112 389.707C276.675 387.628 272.158 386.625 265.49 386.625H249.43V410.776ZM336.039 362.761H433.904V387.987H372.747V406.834H429.459V430.913H372.747V454.204H435.696V480.934H336.039V362.761ZM444.372 441.878L479.072 439.728C479.789 445.389 481.367 449.617 483.661 452.555C487.461 457.285 492.838 459.722 499.792 459.722C504.955 459.722 509.041 458.503 511.837 456.067C514.634 453.63 516.067 450.764 516.067 447.539C516.067 444.457 514.705 441.734 512.052 439.298C509.4 436.861 503.162 434.64 493.34 432.418C477.352 428.835 465.952 424.033 459.069 418.085C452.186 412.137 448.745 404.541 448.745 395.296C448.745 389.205 450.537 383.472 454.05 378.097C457.564 372.722 462.869 368.422 469.967 365.341C477.065 362.259 486.744 360.754 499.076 360.754C514.203 360.754 525.675 363.549 533.633 369.211C541.52 374.872 546.251 383.758 547.757 396.085L513.415 398.163C512.483 392.788 510.547 388.847 507.679 386.482C504.739 384.045 500.653 382.827 495.562 382.827C491.332 382.827 488.106 383.758 485.955 385.55C483.804 387.342 482.729 389.563 482.729 392.143C482.729 394.006 483.661 395.655 485.382 397.231C487.102 398.736 491.117 400.241 497.57 401.603C513.558 405.043 525.029 408.554 531.912 412.066C538.795 415.577 543.885 419.949 546.968 425.18C550.123 430.34 551.7 436.216 551.7 442.666C551.7 450.262 549.621 457.214 545.391 463.592C541.233 469.97 535.354 474.843 527.826 478.139C520.298 481.436 510.834 483.084 499.362 483.084C479.287 483.084 465.307 479.214 457.564 471.475C449.82 463.592 445.447 453.774 444.372 441.878ZM557.006 362.761H668.206V392H630.924V481.006H594.359V392H557.006V362.761ZM433.976 82.1267C420.855 81.1234 407.591 81.2668 394.471 82.5567C354.106 86.4265 314.889 101.118 282.482 126.271C244.985 155.295 216.522 198.723 205.552 256.269L202.111 274.257L184.187 277.41C166.621 280.491 150.92 284.719 137.154 290.094C123.819 295.254 111.917 301.632 101.521 309.157C93.2047 315.176 86.0351 321.913 79.9409 329.223C61.0849 351.797 52.3379 380.104 52.553 408.769C52.7681 437.864 62.232 467.246 79.7258 491.397C86.2501 500.355 93.7782 508.596 102.382 515.763C111.129 523.001 120.951 529.02 131.992 533.535C138.23 536.115 144.897 538.265 151.852 539.985V593.661C137.513 591.081 124.321 587.211 111.989 582.123C95.714 575.387 81.3031 566.715 68.6129 556.109C56.568 546.076 46.0287 534.682 37.0667 522.284C13.192 489.319 0.286678 449.044 -0.000105439 408.912C-0.286889 368.351 12.3316 328.004 39.5761 295.326C48.3947 284.719 58.7906 274.973 70.6921 266.374C84.5294 256.341 100.374 247.884 118.298 240.933C130.63 236.132 143.822 232.118 157.731 228.894C173.504 166.26 207.13 118.03 250.362 84.5633C290.799 53.2463 339.48 34.9721 389.596 30.1707C415.908 27.6624 442.579 28.8091 468.676 33.6822C468.103 36.0471 467.601 38.412 467.314 40.8485L467.242 41.2785C466.741 45.3633 466.526 49.4482 466.741 53.6046C461.22 55.7545 456.058 58.6927 451.398 62.2759L451.183 62.4193C444.228 67.6507 438.349 74.3871 433.976 82.1267ZM813.319 219.721C817.334 223.375 821.205 227.174 825.005 231.258C832.677 239.5 839.918 248.816 846.729 259.207C869.672 294.466 881.43 341.549 880.928 387.628C880.426 432.848 868.238 477.853 843.288 510.961C827.013 532.532 806.149 550.161 781.127 564.136C763.992 573.738 744.706 581.693 723.699 588.143V532.604C735.027 528.375 745.566 523.646 755.245 518.271C774.101 507.736 789.516 494.909 801.059 479.501C818.983 455.637 827.802 421.883 828.16 387.27C828.59 350.937 819.7 314.46 802.421 287.944C797.474 280.276 792.025 273.397 786.29 267.234C784.067 264.869 781.844 262.647 779.55 260.497C779.909 256.914 780.052 253.259 779.837 249.604C785.357 247.454 790.52 244.516 795.18 240.933L795.395 240.79C802.78 235.128 808.945 227.962 813.319 219.721ZM631.498 91.7296C664.55 96.2444 687.636 126.701 683.119 159.738C678.602 192.775 648.131 215.922 615.08 211.408C582.028 206.893 558.87 176.436 563.458 143.399C568.047 110.362 598.446 87.2148 631.498 91.7296Z" fill="#D2D2D2"/>
</g>
<defs>
<clipPath id="clip0_59_14">
<rect width="881" height="719" fill="white"/>
</clipPath>
</defs>
</svg>
