<svg width="800" height="800" viewBox="0 0 800 800" fill="none" xmlns="http://www.w3.org/2000/svg">
<path d="M400.376 42.8683C203.697 42.8683 43.6211 203.019 43.6211 399.623C43.6211 596.227 203.772 756.378 400.376 756.378C596.98 756.378 757.131 596.227 757.131 399.623C757.131 203.019 596.98 42.8683 400.376 42.8683ZM399.848 74.5664C405.947 74.7244 411.744 77.2668 416.002 81.6516C420.26 86.0364 422.642 91.9166 422.64 98.0381C422.64 104.263 420.167 110.233 415.765 114.635C411.364 119.037 405.393 121.51 399.168 121.51C392.943 121.51 386.973 119.037 382.571 114.635C378.169 110.233 375.697 104.263 375.697 98.0381C375.695 94.8978 376.324 91.7891 377.546 88.8962C378.768 86.0032 380.558 83.3849 382.81 81.1963C385.062 79.0076 387.73 77.2931 390.657 76.1543C393.583 75.0155 396.709 74.4755 399.848 74.5664ZM453.583 113.208C494.788 120.926 533.819 137.521 567.965 161.84C602.112 186.16 630.555 217.621 651.319 254.038L623.621 316.529C618.866 327.321 623.772 340 634.489 344.831L687.772 368.453C689.425 385.109 689.627 401.876 688.376 418.566H658.715C655.772 418.566 654.565 420.529 654.565 423.397V436.982C654.565 468.982 636.527 476 620.678 477.736C605.583 479.472 588.904 471.397 586.791 462.189C577.885 412.151 563.093 401.51 539.697 383.019C568.753 364.604 598.942 337.359 598.942 300.982C598.942 261.661 571.998 236.906 553.659 224.755C527.848 207.774 499.319 204.378 491.621 204.378H185.206C227.576 157.045 284.369 125.001 346.791 113.208L382.942 151.095C391.093 159.623 404.602 160 413.131 151.774L453.583 113.208ZM119.998 286.944C126.105 287.121 131.902 289.671 136.158 294.054C140.414 298.437 142.793 304.306 142.791 310.415C142.791 316.641 140.318 322.611 135.916 327.012C131.514 331.414 125.544 333.887 119.319 333.887C113.094 333.887 107.124 331.414 102.722 327.012C98.3204 322.611 95.8475 316.641 95.8475 310.415C95.8462 307.275 96.4751 304.166 97.6969 301.274C98.9187 298.381 100.709 295.762 102.961 293.574C105.213 291.385 107.881 289.67 110.807 288.532C113.734 287.393 116.859 286.853 119.998 286.944ZM679.621 288C685.728 288.177 691.525 290.728 695.781 295.111C700.037 299.493 702.416 305.363 702.414 311.472C702.414 317.697 699.941 323.667 695.539 328.069C691.137 332.471 685.167 334.944 678.942 334.944C672.717 334.944 666.747 332.471 662.345 328.069C657.943 323.667 655.47 317.697 655.47 311.472C655.469 308.332 656.098 305.223 657.32 302.33C658.541 299.437 660.331 296.819 662.583 294.63C664.835 292.442 667.504 290.727 670.43 289.588C673.357 288.449 676.482 287.909 679.621 288ZM164.225 291.774H205.131V476.227H122.565C112.367 440.419 109.19 402.977 113.206 365.963L163.772 343.472C174.564 338.642 179.47 326.038 174.64 315.246L164.225 291.774ZM334.942 293.736H432.376C437.432 293.736 467.923 299.548 467.923 322.415C467.923 341.359 444.527 348.151 425.281 348.151H334.866L334.942 293.736ZM334.942 426.265H409.583C416.376 426.265 446.036 428.227 455.47 466.114C458.414 477.736 464.98 515.623 469.432 527.774C473.885 541.359 491.923 568.529 511.168 568.529H632.98C624.816 579.461 615.888 589.802 606.263 599.472L556.678 588.831C545.131 586.34 533.734 593.736 531.244 605.283L519.47 660.227C481.61 677.377 440.494 686.155 398.931 685.959C357.368 685.764 316.337 676.6 278.64 659.095L266.866 604.151C264.376 592.604 253.055 585.208 241.508 587.699L192.98 598.114C183.974 588.824 175.603 578.94 167.923 568.529H403.923C406.564 568.529 408.376 568.076 408.376 565.585V482.114C408.376 479.698 406.564 479.17 403.923 479.17H334.866L334.942 426.265ZM226.036 617.434C232.143 617.611 237.94 620.162 242.196 624.545C246.452 628.927 248.831 634.797 248.829 640.906C248.829 647.131 246.356 653.101 241.954 657.503C237.552 661.905 231.582 664.378 225.357 664.378C219.132 664.378 213.162 661.905 208.76 657.503C204.358 653.101 201.885 647.131 201.885 640.906C201.884 637.766 202.513 634.657 203.735 631.764C204.956 628.871 206.746 626.253 208.998 624.064C211.25 621.876 213.919 620.161 216.845 619.022C219.772 617.883 222.897 617.343 226.036 617.434ZM573.583 618.491C579.69 618.668 585.487 621.218 589.743 625.601C593.999 629.984 596.378 635.853 596.376 641.963C596.376 648.188 593.903 654.158 589.501 658.56C585.099 662.961 579.129 665.434 572.904 665.434C566.679 665.434 560.709 662.961 556.307 658.56C551.905 654.158 549.432 648.188 549.432 641.963C549.431 638.822 550.06 635.714 551.282 632.821C552.504 629.928 554.294 627.309 556.546 625.121C558.798 622.932 561.466 621.218 564.392 620.079C567.319 618.94 570.444 618.4 573.583 618.491Z" fill="#D2D2D2"/>
<path fill-rule="evenodd" clip-rule="evenodd" d="M737.206 399.622C737.206 488.955 701.719 574.629 638.551 637.797C575.383 700.965 489.709 736.452 400.376 736.452C311.043 736.452 225.369 700.965 162.201 637.797C99.033 574.629 63.5456 488.955 63.5456 399.622C63.5456 310.289 99.033 224.615 162.201 161.447C225.369 98.2794 311.043 62.7921 400.376 62.7921C489.709 62.7921 575.383 98.2794 638.551 161.447C701.719 224.615 737.206 310.289 737.206 399.622ZM730.866 367.094L783.395 399.622L730.866 432.151L775.998 474.339L718.187 496L754.263 546.188L693.206 556.151L718.866 612.452L657.055 610.264L671.244 670.49L611.017 656.301L613.206 718.113L556.904 692.452L546.942 753.509L496.753 717.434L475.093 775.245L432.904 730.113L400.376 782.641L367.847 730.113L325.659 775.245L303.998 717.434L253.81 753.509L243.848 692.452L187.546 718.113L189.734 656.301L129.508 670.49L143.697 610.264L81.8852 612.452L107.546 556.151L46.489 546.188L82.5645 496L24.7532 474.339L69.8852 432.151L17.3569 399.622L69.8852 367.094L24.7532 324.905L82.5645 303.245L46.489 253.056L107.546 243.094L81.8852 186.792L143.697 188.981L129.508 128.754L189.734 142.943L187.546 81.1317L243.848 106.792L253.81 45.7355L303.998 81.8109L325.659 23.9996L367.847 69.1317L400.376 16.6034L432.904 69.1317L475.093 23.9996L496.753 81.8109L546.942 45.7355L556.904 106.792L613.206 81.1317L611.017 142.943L671.244 128.754L657.055 188.981L718.866 186.792L693.206 243.094L754.263 253.056L718.187 303.245L775.998 324.905L730.866 367.094Z" fill="#D2D2D2" stroke="#D2D2D2" stroke-width="3" stroke-linecap="round" stroke-linejoin="round"/>
</svg>
