<svg width="830" height="799" viewBox="0 0 830 799" fill="none" xmlns="http://www.w3.org/2000/svg">
<g clip-path="url(#clip0_54_31)">
<path d="M417.716 60.5891C422.322 32.2207 403.052 5.49109 374.676 0.886763C346.3 -3.71756 319.563 15.547 314.957 43.9153C310.352 72.2837 329.622 99.0133 357.998 103.618C386.374 108.222 413.111 88.9574 417.716 60.5891Z" fill="#E1262F"/>
<path d="M747.962 799.017C793.27 799.017 830 762.298 830 717.002C830 671.706 793.27 634.986 747.962 634.986C702.654 634.986 665.924 671.706 665.924 717.002C665.924 762.298 702.654 799.017 747.962 799.017Z" fill="#E1262F"/>
<path d="M36.21 753.202C56.2082 753.202 72.4199 736.995 72.4199 717.002C72.4199 697.009 56.2082 680.802 36.21 680.802C16.2118 680.802 0 697.009 0 717.002C0 736.995 16.2118 753.202 36.21 753.202Z" fill="#E1262F"/>
<path d="M366.06 159.294C190.668 159.294 48.6572 301.267 48.6572 476.611C48.6572 651.955 190.668 793.927 366.06 793.927C541.452 793.927 683.463 651.955 683.463 476.611C683.463 301.267 541.452 159.294 366.06 159.294ZM151.063 353.304L365.494 229.432L579.359 353.304V465.298L480.914 433.623V410.432L365.494 343.689L280.627 392.898L579.359 488.489V600.483L364.929 724.355L150.498 601.048V488.489L249.509 519.598V542.789L364.929 609.533L450.927 559.758L151.063 464.733V353.304Z" fill="#E1262F"/>
</g>
<defs>
<clipPath id="clip0_54_31">
<rect width="830" height="799" fill="white"/>
</clipPath>
</defs>
</svg>
