<svg width="1177" height="800" viewBox="0 0 1177 800" fill="none" xmlns="http://www.w3.org/2000/svg">
<g clip-path="url(#clip0_54_18)">
<path d="M706.065 565.677H659.938V417.089C674.708 425.342 694.136 440.52 706.065 455.151V565.677Z" fill="#AC162C"/>
<path d="M317.51 565.677H260.022L185.038 332.509H237.3L288.88 495.955H289.527L341.789 332.509H394.392L317.51 565.677Z" fill="#AC162C"/>
<path d="M549.28 565.677H505.426V542.132H504.46C498.609 551.938 491.054 559.048 481.737 563.391C472.433 567.746 462.878 569.918 453.107 569.918C440.723 569.918 430.612 568.283 422.772 565.026C414.876 561.768 408.685 557.128 404.14 551.196C399.584 545.206 396.392 537.937 394.551 529.25C392.722 520.655 391.802 511.077 391.802 500.676V396.779H437.928V492.103C437.928 506.048 440.098 516.449 444.427 523.307C448.756 530.176 456.47 533.594 467.49 533.594C479.988 533.594 489.077 529.845 494.757 522.324C500.393 514.803 503.199 502.436 503.199 485.291V396.824H549.325V565.986L549.28 565.677Z" fill="#AC162C"/>
<path d="M826.495 396.516L762.872 459.38L833.312 565.677H777.642L714.019 463.952V457.094L771.961 396.516H826.495Z" fill="#AC162C"/>
<path d="M842.4 449.093C843.048 438.212 845.763 429.205 850.524 422.004C855.284 414.803 861.339 409.088 868.702 404.745C876.064 400.402 884.38 397.281 893.583 395.441C902.774 393.59 911.988 392.664 921.304 392.664C929.746 392.664 938.346 393.258 946.981 394.458C955.649 395.658 963.568 398.002 970.726 401.488C977.86 404.974 983.677 409.82 988.222 416.004C992.766 422.21 995.039 430.405 995.039 440.692V528.587C995.039 536.211 995.47 543.56 996.334 550.533C997.197 557.505 998.72 562.763 1000.89 566.191H954.081C953.218 563.585 952.513 560.911 951.968 558.191C951.434 555.47 951.048 552.704 950.832 549.858C943.47 557.493 934.813 562.774 924.815 565.86C914.862 568.9 904.705 570.432 894.253 570.432C886.243 570.432 878.802 569.449 871.871 567.494C864.941 565.54 858.92 562.488 853.693 558.351C848.49 554.213 844.423 548.99 841.537 542.692C838.617 536.382 837.151 528.862 837.151 520.175C837.151 510.597 838.833 502.687 842.184 496.515C845.547 490.309 849.865 485.36 855.136 481.656C860.442 477.953 866.497 475.176 873.314 473.324C880.131 471.472 886.948 469.998 893.878 468.912C900.808 467.838 907.625 466.958 914.328 466.306C921.031 465.655 926.939 464.672 932.165 463.369C937.369 462.054 941.47 460.157 944.549 457.642C947.583 455.139 948.991 451.493 948.776 446.704C948.776 441.698 947.958 437.72 946.333 434.817C944.708 431.914 942.55 429.594 939.846 427.959C937.142 426.325 934.006 425.239 930.427 424.69C926.848 424.142 923.02 423.867 918.952 423.867C909.863 423.867 902.706 425.822 897.48 429.754C892.287 433.674 889.254 440.2 888.391 449.413H842.264L842.4 449.093ZM948.855 483.382C946.901 485.131 944.47 486.48 941.55 487.463C938.63 488.457 935.494 489.269 932.131 489.92C928.78 490.572 925.258 491.12 921.588 491.555C917.907 491.989 914.226 492.526 910.545 493.189C907.08 493.841 903.671 494.721 900.32 495.795C896.968 496.892 894.037 498.355 891.549 500.207C889.061 502.059 887.061 504.402 885.539 507.225C884.028 510.06 883.267 513.649 883.267 518.003C883.267 522.141 884.028 525.627 885.539 528.45C887.061 531.285 889.118 533.514 891.708 535.148C894.31 536.783 897.332 537.925 900.797 538.577C904.262 539.228 907.83 539.549 911.511 539.549C920.6 539.549 927.644 538.028 932.643 534.988C937.619 531.936 941.311 528.29 943.674 524.038C946.049 519.798 947.526 515.5 948.048 511.123C948.594 506.768 948.855 503.282 948.867 500.676V483.302L948.855 483.382Z" fill="#AC162C"/>
<path d="M1019.64 396.516H1063.49V420.061H1064.46C1070.3 410.266 1077.86 403.145 1087.18 398.687C1096.48 394.218 1106.04 391.99 1115.7 391.99C1128.08 391.99 1138.19 393.681 1146.03 397.053C1153.93 400.436 1160.12 405.111 1164.66 411.112C1169.21 417.101 1172.4 424.37 1174.24 432.943C1176.08 441.549 1177 451.116 1177 461.517V565.414H1130.87V470.09C1130.87 456.145 1128.7 445.744 1124.39 438.886C1120.05 432.028 1112.34 428.599 1101.32 428.599C1088.83 428.599 1079.74 432.36 1074.06 439.869C1068.42 447.367 1065.61 459.757 1065.61 476.902V565.369H1019.49V396.207L1019.64 396.516Z" fill="#AC162C"/>
<path d="M578.819 367.941V565.677H624.946V393.087C610.176 383.966 594.725 375.37 578.819 367.484V367.941Z" fill="#AC162C"/>
<path d="M108.463 375.942C135.162 297.191 294.788 268.273 465.206 311.478C567.458 337.309 650.395 387.486 706.065 437.206C681.297 371.37 561.777 277.188 395.903 245.185C209.578 208.838 24.39 240.784 1.66749 324.165C-14.8063 384.4 57.5648 454.465 169.814 503.613C119.597 462.694 95.0569 416.632 108.918 375.599L108.463 375.942Z" fill="#AC162C"/>
<path d="M706.065 409.089V332.966H659.938V356.054C679.593 373.77 695.158 391.715 706.065 409.089Z" fill="#AC162C"/>
</g>
<defs>
<clipPath id="clip0_54_18">
<rect width="1177" height="800" fill="white"/>
</clipPath>
</defs>
</svg>
